<svg width="14" height="8" viewBox="0 0 14 8" fill="none" xmlns="http://www.w3.org/2000/svg">
<path d="M1.16669 7.30161C1.38527 7.51891 1.68097 7.64087 1.98919 7.64087C2.2974 7.64087 2.5931 7.5189 2.81169 7.30161L7.00002 3.17161L11.13 7.30161C11.3486 7.5189 11.6443 7.64087 11.9525 7.64087C12.2607 7.64087 12.5564 7.5189 12.775 7.30161C12.8844 7.19315 12.9712 7.06412 13.0304 6.92195C13.0896 6.77978 13.1201 6.62729 13.1201 6.47328C13.1201 6.31926 13.0896 6.16677 13.0304 6.0246C12.9712 5.88244 12.8844 5.7534 12.775 5.64494L7.82835 0.698277C7.71989 0.588927 7.59086 0.502134 7.44869 0.442904C7.30652 0.383674 7.15403 0.353179 7.00002 0.353179C6.846 0.353179 6.69351 0.383674 6.55135 0.442904C6.40918 0.502134 6.28014 0.588927 6.17169 0.698277L1.16668 5.64494C1.05734 5.7534 0.970542 5.88244 0.911312 6.02461C0.852082 6.16677 0.821586 6.31926 0.821586 6.47328C0.821586 6.62729 0.852082 6.77978 0.911312 6.92195C0.970542 7.06412 1.05734 7.19316 1.16669 7.30161Z" fill="#6C6C6C"/>
</svg>
