<svg width="61" height="61" viewBox="0 0 61 61" fill="none" xmlns="http://www.w3.org/2000/svg">
<path d="M0 30.0922C0 13.4727 13.4727 0 30.0922 0V0C46.7117 0 60.1844 13.4727 60.1844 30.0922V30.0922C60.1844 46.7117 46.7117 60.1844 30.0922 60.1844V60.1844C13.4727 60.1844 0 46.7117 0 30.0922V30.0922Z" fill="#001833"/>
<path d="M36.1106 26.6857C35.8851 26.4615 35.58 26.3357 35.262 26.3357C34.944 26.3357 34.6389 26.4615 34.4134 26.6857L30.0921 30.9468L25.8311 26.6857C25.6056 26.4615 25.3005 26.3357 24.9825 26.3357C24.6645 26.3357 24.3594 26.4615 24.1339 26.6857C24.0211 26.7976 23.9315 26.9307 23.8704 27.0774C23.8093 27.2241 23.7778 27.3814 23.7778 27.5403C23.7778 27.6992 23.8093 27.8566 23.8704 28.0032C23.9315 28.1499 24.0211 28.2831 24.1339 28.395L29.2375 33.4986C29.3494 33.6114 29.4825 33.701 29.6292 33.7621C29.7759 33.8232 29.9332 33.8546 30.0921 33.8546C30.251 33.8546 30.4084 33.8232 30.5551 33.7621C30.7017 33.701 30.8349 33.6114 30.9468 33.4986L36.1106 28.395C36.2234 28.2831 36.313 28.1499 36.3741 28.0032C36.4352 27.8566 36.4666 27.6992 36.4666 27.5403C36.4666 27.3814 36.4352 27.2241 36.3741 27.0774C36.313 26.9307 36.2234 26.7976 36.1106 26.6857Z" fill="white"/>
</svg>
