<svg width="14" height="9" viewBox="0 0 14 9" fill="none" xmlns="http://www.w3.org/2000/svg">
<path d="M13.1106 1.299C12.8851 1.07481 12.58 0.948975 12.262 0.948975C11.944 0.948975 11.6389 1.07481 11.4134 1.299L7.09214 5.56006L2.83108 1.299C2.60556 1.07481 2.30048 0.948975 1.98248 0.948975C1.66448 0.948975 1.35941 1.07481 1.13388 1.299C1.02106 1.4109 0.931513 1.54403 0.870404 1.69071C0.809294 1.83739 0.777832 1.99472 0.777832 2.15362C0.777832 2.31252 0.809294 2.46985 0.870404 2.61653C0.931513 2.76321 1.02106 2.89634 1.13388 3.00824L6.23752 8.11188C6.34942 8.2247 6.48255 8.31424 6.62923 8.37535C6.77591 8.43646 6.93324 8.46793 7.09214 8.46793C7.25104 8.46793 7.40837 8.43646 7.55505 8.37535C7.70173 8.31424 7.83486 8.2247 7.94676 8.11188L13.1106 3.00824C13.2234 2.89634 13.313 2.76321 13.3741 2.61653C13.4352 2.46985 13.4666 2.31252 13.4666 2.15362C13.4666 1.99472 13.4352 1.83739 13.3741 1.69071C13.313 1.54403 13.2234 1.4109 13.1106 1.299Z" fill="white"/>
</svg>
