<svg width="61" height="61" viewBox="0 0 61 61" fill="none" xmlns="http://www.w3.org/2000/svg">
<rect x="0.629883" y="0.589844" width="60.1844" height="60.1844" rx="16.8516" fill="#622E80"/>
<g clip-path="url(#clip0_1847_48076)">
<path d="M30.7271 17.5103C33.3903 17.5103 36.0875 17.5994 38.7508 17.7732C39.9001 17.858 41.096 18.4432 42.0332 19.3803C42.9705 20.3173 43.5557 21.5131 43.6405 22.6622C43.9883 27.9837 43.9883 33.3857 43.6405 38.7071C43.5557 39.8562 42.9705 41.052 42.0332 41.9891C41.096 42.9261 39.9001 43.5113 38.7508 43.5961C36.0875 43.7699 33.3903 43.859 30.7271 43.859C28.0638 43.859 25.3666 43.7699 22.7033 43.5961C21.554 43.5113 20.3581 42.9261 19.4209 41.9891C18.4837 41.052 17.8984 39.8562 17.8136 38.7071C17.4658 33.3857 17.4658 27.9837 17.8136 22.6622C17.8984 21.5131 18.4837 20.3173 19.4209 19.3803C20.3581 18.4432 21.554 17.858 22.7033 17.7732C25.3666 17.5951 28.0638 17.5103 30.7271 17.5103ZM30.7271 16.2383C28.0214 16.2383 25.3199 16.3273 22.6143 16.5012C19.5736 16.7217 16.7619 19.5287 16.5413 22.5731C16.1893 27.9794 16.1893 33.3857 16.5413 38.7919C16.7619 41.8322 19.5693 44.6434 22.6143 44.8639C25.3199 45.0378 28.0214 45.1268 30.7271 45.1268C33.4327 45.1268 36.1342 45.0378 38.8398 44.8639C41.8805 44.6434 44.6922 41.8364 44.9128 38.7919C45.2648 33.3857 45.2648 27.9794 44.9128 22.5731C44.6922 19.5329 41.8848 16.7217 38.8398 16.5012C36.1342 16.3231 33.4327 16.2383 30.7271 16.2383Z" fill="white"/>
<path d="M23.9158 38.6094C23.5638 38.6094 23.2797 38.3253 23.2797 37.9734V25.4097C23.2797 25.0578 23.5638 24.7737 23.9158 24.7737C24.2678 24.7737 24.5519 25.0578 24.5519 25.4097V37.9734C24.5519 38.3253 24.2678 38.6094 23.9158 38.6094Z" fill="white"/>
<path d="M30.7265 38.6094C30.3745 38.6094 30.0904 38.3253 30.0904 37.9734V31.6809C30.0904 31.329 30.3745 31.0449 30.7265 31.0449C31.0785 31.0449 31.3627 31.329 31.3627 31.6809V37.9734C31.3627 38.3253 31.0785 38.6094 30.7265 38.6094Z" fill="white"/>
<path d="M37.5384 38.6095C37.1864 38.6095 36.9023 38.3254 36.9023 37.9735V28.7383C36.9023 28.3864 37.1864 28.1023 37.5384 28.1023C37.8904 28.1023 38.1746 28.3864 38.1746 28.7383V37.9735C38.1746 38.3254 37.8904 38.6095 37.5384 38.6095Z" fill="white"/>
</g>
<defs>
<clipPath id="clip0_1847_48076">
<rect width="28.8885" height="28.8885" fill="white" transform="translate(16.2773 16.2383)"/>
</clipPath>
</defs>
</svg>
