<svg width="18" height="13" viewBox="0 0 18 13" fill="none" xmlns="http://www.w3.org/2000/svg">
<path d="M17.0439 10.7769L9.48534 1.18332C9.34359 1.00341 9.15134 0.902344 8.95088 0.902344C8.75042 0.902344 8.55817 1.00341 8.41642 1.18332L0.857874 10.7769C0.752162 10.9111 0.680169 11.082 0.651001 11.2681C0.621833 11.4542 0.6368 11.6471 0.694009 11.8224C0.751217 11.9977 0.848098 12.1475 0.972399 12.2529C1.0967 12.3583 1.24284 12.4146 1.39233 12.4146H16.5094C16.6589 12.4146 16.8051 12.3583 16.9294 12.2529C17.0537 12.1475 17.1505 11.9977 17.2078 11.8224C17.265 11.6471 17.2799 11.4542 17.2508 11.2681C17.2216 11.082 17.1496 10.9111 17.0439 10.7769V10.7769Z" fill="#16C35B"/>
</svg>
