<svg width="758" height="62" viewBox="0 0 758 62" fill="none" xmlns="http://www.w3.org/2000/svg">
<path opacity="0.2" fill-rule="evenodd" clip-rule="evenodd" d="M0.654297 25.7852H20.8411V61.058H0.654297V25.7852Z" fill="#FFAE18"/>
<path fill-rule="evenodd" clip-rule="evenodd" d="M28.4118 8.65234H48.5986V61.0577H28.4118V8.65234Z" fill="#FFAE18"/>
<path opacity="0.2" fill-rule="evenodd" clip-rule="evenodd" d="M57.4298 16.7148H77.6165V61.0578H57.4298V16.7148Z" fill="#FFAE18"/>
<path opacity="0.2" fill-rule="evenodd" clip-rule="evenodd" d="M114.205 25.7852H134.392V61.058H114.205V25.7852Z" fill="#FFAE18"/>
<path opacity="0.2" fill-rule="evenodd" clip-rule="evenodd" d="M141.962 30.8242H162.149V61.0581H141.962V30.8242Z" fill="#FFAE18"/>
<path opacity="0.2" fill-rule="evenodd" clip-rule="evenodd" d="M170.98 16.7148H191.167V61.0578H170.98V16.7148Z" fill="#FFAE18"/>
<path opacity="0.2" fill-rule="evenodd" clip-rule="evenodd" d="M198.737 33.8477H218.924V61.0581H198.737V33.8477Z" fill="#FFAE18"/>
<path opacity="0.2" fill-rule="evenodd" clip-rule="evenodd" d="M85.1873 33.8477H105.374V61.0581H85.1873V33.8477Z" fill="#FFAE18"/>
<path opacity="0.2" fill-rule="evenodd" clip-rule="evenodd" d="M227.755 25.7852H247.942V61.058H227.755V25.7852Z" fill="#FFAE18"/>
<path fill-rule="evenodd" clip-rule="evenodd" d="M255.512 8.65234H275.699V61.0577H255.512V8.65234Z" fill="#FFAE18"/>
<path opacity="0.2" fill-rule="evenodd" clip-rule="evenodd" d="M284.531 16.7148H304.718V61.0578H284.531V16.7148Z" fill="#FFAE18"/>
<path opacity="0.2" fill-rule="evenodd" clip-rule="evenodd" d="M340.044 25.7852H360.231V61.058H340.044V25.7852Z" fill="#FFAE18"/>
<path opacity="0.2" fill-rule="evenodd" clip-rule="evenodd" d="M369.063 30.8242H389.25V61.0581H369.063V30.8242Z" fill="#FFAE18"/>
<path opacity="0.2" fill-rule="evenodd" clip-rule="evenodd" d="M396.819 16.7148H417.006V61.0578H396.819V16.7148Z" fill="#FFAE18"/>
<path opacity="0.2" fill-rule="evenodd" clip-rule="evenodd" d="M425.838 33.8477H446.025V61.0581H425.838V33.8477Z" fill="#FFAE18"/>
<path opacity="0.2" fill-rule="evenodd" clip-rule="evenodd" d="M312.287 33.8477H332.474V61.0581H312.287V33.8477Z" fill="#FFAE18"/>
<path opacity="0.2" fill-rule="evenodd" clip-rule="evenodd" d="M453.596 25.7852H473.783V61.058H453.596V25.7852Z" fill="#FFAE18"/>
<path opacity="0.2" fill-rule="evenodd" clip-rule="evenodd" d="M651.488 25.7852H671.674V61.058H651.488V25.7852Z" fill="#FFAE18"/>
<path fill-rule="evenodd" clip-rule="evenodd" d="M482.614 8.65234H502.801V61.0577H482.614V8.65234Z" fill="#FFAE18"/>
<path fill-rule="evenodd" clip-rule="evenodd" d="M680.506 8.65234H700.692V61.0577H680.506V8.65234Z" fill="#FFAE18"/>
<path opacity="0.2" fill-rule="evenodd" clip-rule="evenodd" d="M510.37 16.7148H530.557V61.0578H510.37V16.7148Z" fill="#FFAE18"/>
<path opacity="0.2" fill-rule="evenodd" clip-rule="evenodd" d="M708.262 16.7148H728.449V61.0578H708.262V16.7148Z" fill="#FFAE18"/>
<path opacity="0.2" fill-rule="evenodd" clip-rule="evenodd" d="M567.146 25.7852H587.333V61.058H567.146V25.7852Z" fill="#FFAE18"/>
<path fill-rule="evenodd" clip-rule="evenodd" d="M596.164 0.589844H616.351V61.0575H596.164V0.589844Z" fill="#FFAE18"/>
<path opacity="0.2" fill-rule="evenodd" clip-rule="evenodd" d="M623.921 16.7148H644.108V61.0578H623.921V16.7148Z" fill="#FFAE18"/>
<path opacity="0.2" fill-rule="evenodd" clip-rule="evenodd" d="M539.389 33.8477H559.576V61.0581H539.389V33.8477Z" fill="#FFAE18"/>
<path opacity="0.2" fill-rule="evenodd" clip-rule="evenodd" d="M737.281 33.8477H757.468V61.0581H737.281V33.8477Z" fill="#FFAE18"/>
</svg>
