<svg xmlns="http://www.w3.org/2000/svg" width="653.897" height="50.235" viewBox="0 0 653.897 50.235">
  <g id="Group_852" data-name="Group 852" transform="translate(-781 -178)">
    <path id="Path_3599" data-name="Path 3599" d="M487,189.931h13.4v29.3H487Z" transform="translate(294 9)" fill="#fff" fill-rule="evenodd" opacity="0.2"/>
    <path id="Path_3600" data-name="Path 3600" d="M505.42,175.7h13.4v43.537h-13.4Z" transform="translate(294 9)" fill="#fff" fill-rule="evenodd" opacity="0.2"/>
    <path id="Path_3601" data-name="Path 3601" d="M524.676,182.4h13.4v36.839h-13.4Z" transform="translate(294 9)" fill="#fff" fill-rule="evenodd" opacity="0.2"/>
    <path id="Path_3602" data-name="Path 3602" d="M562.353,189.931h13.4v29.3h-13.4Z" transform="translate(294 9)" fill="#fff" fill-rule="evenodd" opacity="0.2"/>
    <path id="Path_3603" data-name="Path 3603" d="M580.773,194.118h13.4v25.117h-13.4Z" transform="translate(294 9)" fill="#fff" fill-rule="evenodd" opacity="0.2"/>
    <path id="Path_3604" data-name="Path 3604" d="M600.029,182.4h13.4v36.839h-13.4Z" transform="translate(294 9)" fill="#fff" fill-rule="evenodd" opacity="0.2"/>
    <path id="Path_3605" data-name="Path 3605" d="M618.449,196.629h13.4v22.606h-13.4Z" transform="translate(294 9)" fill="#fff" fill-rule="evenodd" opacity="0.2"/>
    <path id="Path_3606" data-name="Path 3606" d="M543.1,196.629h13.4v22.606H543.1Z" transform="translate(294 9)" fill="#fff" fill-rule="evenodd" opacity="0.2"/>
    <path id="Path_3607" data-name="Path 3607" d="M637.706,189.931h13.4v29.3h-13.4Z" transform="translate(294 9)" fill="#fff" fill-rule="evenodd" opacity="0.2"/>
    <path id="Path_3608" data-name="Path 3608" d="M656.125,175.7h13.4v43.537h-13.4Z" transform="translate(294 9)" fill="#fff" fill-rule="evenodd" opacity="0.2"/>
    <path id="Path_3609" data-name="Path 3609" d="M675.382,182.4h13.4v36.839h-13.4Z" transform="translate(294 9)" fill="#fff" fill-rule="evenodd" opacity="0.2"/>
    <path id="Path_3610" data-name="Path 3610" d="M712.222,189.931h13.4v29.3h-13.4Z" transform="translate(294 9)" fill="#fff" fill-rule="evenodd" opacity="0.2"/>
    <path id="Path_3611" data-name="Path 3611" d="M731.478,194.118h13.4v25.117h-13.4Z" transform="translate(294 9)" fill="#fff" fill-rule="evenodd" opacity="0.2"/>
    <path id="Path_3612" data-name="Path 3612" d="M749.9,182.4h13.4v36.839H749.9Z" transform="translate(294 9)" fill="#fff" fill-rule="evenodd" opacity="0.2"/>
    <path id="Path_3630" data-name="Path 3630" d="M749.9,182.4h13.4v36.839H749.9Z" transform="translate(463.963 9)" fill="#fff" fill-rule="evenodd" opacity="0.2"/>
    <path id="Path_3613" data-name="Path 3613" d="M769.155,196.629h13.4v22.606h-13.4Z" transform="translate(294 9)" fill="#fff" fill-rule="evenodd" opacity="0.2"/>
    <path id="Path_3631" data-name="Path 3631" d="M769.155,196.629h13.4v22.606h-13.4Z" transform="translate(463.963 9)" fill="#fff" fill-rule="evenodd" opacity="0.2"/>
    <path id="Path_3614" data-name="Path 3614" d="M693.8,196.629h13.4v22.606H693.8Z" transform="translate(294 9)" fill="#fff" fill-rule="evenodd" opacity="0.2"/>
    <path id="Path_3615" data-name="Path 3615" d="M787.575,189.931h13.4v29.3h-13.4Z" transform="translate(294 9)" fill="#fff" fill-rule="evenodd" opacity="0.2"/>
    <path id="Path_3632" data-name="Path 3632" d="M787.575,189.931h13.4v29.3h-13.4Z" transform="translate(463.963 9)" fill="#fff" fill-rule="evenodd" opacity="0.2"/>
    <path id="Path_3616" data-name="Path 3616" d="M806.831,175.7h13.4v43.537h-13.4Z" transform="translate(294 9)" fill="#fff" fill-rule="evenodd" opacity="0.2"/>
    <path id="Path_3633" data-name="Path 3633" d="M806.831,175.7h13.4v43.537h-13.4Z" transform="translate(463.963 9)" fill="#fff" fill-rule="evenodd" opacity="0.2"/>
    <path id="Path_3617" data-name="Path 3617" d="M825.251,182.4h13.4v36.839h-13.4Z" transform="translate(294 9)" fill="#fff" fill-rule="evenodd" opacity="0.2"/>
    <path id="Path_3634" data-name="Path 3634" d="M825.251,182.4h13.4v36.839h-13.4Z" transform="translate(463.963 9)" fill="#fff" fill-rule="evenodd" opacity="0.2"/>
    <path id="Path_3639" data-name="Path 3639" d="M825.251,182.4h13.4v36.839h-13.4Z" transform="translate(558.573 9)" fill="#fff" fill-rule="evenodd" opacity="0.2"/>
    <path id="Path_3618" data-name="Path 3618" d="M862.928,189.931h13.4v29.3h-13.4Z" transform="translate(294 9)" fill="#fff" fill-rule="evenodd" opacity="0.2"/>
    <path id="Path_3636" data-name="Path 3636" d="M862.928,189.931h13.4v29.3h-13.4Z" transform="translate(463.963 9)" fill="#fff" fill-rule="evenodd" opacity="0.2"/>
    <path id="Path_3641" data-name="Path 3641" d="M862.928,189.931h13.4v29.3h-13.4Z" transform="translate(558.573 9)" fill="#fff" fill-rule="evenodd" opacity="0.2"/>
    <path id="Path_3619" data-name="Path 3619" d="M882.184,169h13.4v50.235h-13.4Z" transform="translate(294 9)" fill="#fff" fill-rule="evenodd"/>
    <path id="Path_3637" data-name="Path 3637" d="M882.184,169h13.4v50.235h-13.4Z" transform="translate(463.963 9)" fill="#fff" fill-rule="evenodd"/>
    <path id="Path_3620" data-name="Path 3620" d="M900.6,182.4H914v36.839H900.6Z" transform="translate(294 9)" fill="#fff" fill-rule="evenodd" opacity="0.2"/>
    <path id="Path_3638" data-name="Path 3638" d="M900.6,182.4H914v36.839H900.6Z" transform="translate(463.963 9)" fill="#fff" fill-rule="evenodd" opacity="0.2"/>
    <path id="Path_3621" data-name="Path 3621" d="M844.508,196.629h13.4v22.606h-13.4Z" transform="translate(294 9)" fill="#fff" fill-rule="evenodd" opacity="0.2"/>
    <path id="Path_3635" data-name="Path 3635" d="M844.508,196.629h13.4v22.606h-13.4Z" transform="translate(463.963 9)" fill="#fff" fill-rule="evenodd" opacity="0.2"/>
    <path id="Path_3640" data-name="Path 3640" d="M844.508,196.629h13.4v22.606h-13.4Z" transform="translate(558.573 9)" fill="#fff" fill-rule="evenodd" opacity="0.2"/>
  </g>
</svg>
