<svg xmlns="http://www.w3.org/2000/svg" xmlns:xlink="http://www.w3.org/1999/xlink" width="56" height="56" viewBox="0 0 56 56">
  <defs>
    <clipPath id="clip-path">
      <rect id="Rectangle_840" data-name="Rectangle 840" width="56" height="56" transform="translate(-0.254 0.176)" fill="#fff"/>
    </clipPath>
  </defs>
  <g id="Group_698" data-name="Group 698" transform="translate(0.254 -0.176)" clip-path="url(#clip-path)">
    <path id="Path_3626" data-name="Path 3626" d="M461.608,239.22c-5.167,0-10.34-.169-15.466-.5h-.007A14.31,14.31,0,0,1,433.5,226.084v-.01a239.178,239.178,0,0,1,0-30.935v-.007A14.312,14.312,0,0,1,446.134,182.5h.007a239.236,239.236,0,0,1,30.94,0h.01l.288.024a1.209,1.209,0,0,1-.25,2.406,2.161,2.161,0,0,0-.217-.017,237.687,237.687,0,0,0-30.618,0,11.9,11.9,0,0,0-10.4,10.4,236.77,236.77,0,0,0,0,30.613,11.912,11.912,0,0,0,10.4,10.4,236.81,236.81,0,0,0,30.618,0,11.914,11.914,0,0,0,10.4-10.4,236.737,236.737,0,0,0,0-30.613c-.01-.072-.01-.145-.017-.217a1.209,1.209,0,0,1,2.406-.25c.01.1.017.193.024.291v.007a239.156,239.156,0,0,1,0,30.935v.01a14.308,14.308,0,0,1-12.641,12.639h-.007C471.948,239.051,466.774,239.22,461.608,239.22Z" transform="translate(-433.73 -182.791)" fill="#fff"/>
    <path id="Path_3627" data-name="Path 3627" d="M456.945,185.094a1.423,1.423,0,1,1-1.433,1.423A1.426,1.426,0,0,1,456.945,185.094Zm0-2.415a3.839,3.839,0,1,0,3.839,3.839A3.845,3.845,0,0,0,456.945,182.679Z" transform="translate(-405.909 -181.851)" fill="#fff"/>
    <path id="Path_3628" data-name="Path 3628" d="M439.275,209.481a1.214,1.214,0,0,1-.854-.353,1.2,1.2,0,0,1,0-1.707l10.517-10.514a1.2,1.2,0,0,1,1.707,0l5.882,5.882,12.546-12.543a1.205,1.205,0,0,1,1.7,1.7l-13.4,13.4a1.209,1.209,0,0,1-1.707,0l-5.882-5.882-9.663,9.663A1.2,1.2,0,0,1,439.275,209.481Z" transform="translate(-426.718 -171.87)" fill="#fff"/>
  </g>
</svg>
