<svg width="61" height="60" viewBox="0 0 61 60" fill="none" xmlns="http://www.w3.org/2000/svg">
<rect x="0.189453" y="-0.000976562" width="60" height="60" rx="16.8516" fill="#FFAE18"/>
<g clip-path="url(#clip0_1847_48075)">
<path d="M30.1883 44C27.6604 44 25.1286 43.9144 22.6204 43.7472H22.6165C21.1084 43.633 19.6279 42.895 18.4427 41.6677C17.2575 40.4404 16.5448 38.9032 16.4346 37.3415V37.3374C16.1077 32.1346 16.1077 26.8624 16.4346 21.6595V21.6555C16.5448 20.0938 17.2575 18.5607 18.4427 17.3333C19.6279 16.106 21.1123 15.368 22.6165 15.2538H22.6204C27.6446 14.9154 32.7358 14.9154 37.7601 15.2538H37.7641C37.8113 15.2579 37.8585 15.262 37.9058 15.2661C38.2287 15.3028 38.4649 15.6004 38.4334 15.9388C38.398 16.2732 38.1106 16.5178 37.7837 16.4852C37.7483 16.4811 37.7129 16.4771 37.6774 16.4771C32.7083 16.1427 27.6683 16.1427 22.6952 16.4771C20.1673 16.6687 17.7891 19.1274 17.6079 21.7452C17.2851 26.8909 17.2851 32.1101 17.6079 37.2599C17.793 39.8777 20.1673 42.3364 22.6952 42.5281C27.6643 42.8624 32.7044 42.8624 37.6774 42.5281C40.2053 42.3364 42.5796 39.8777 42.7647 37.2599C43.0876 32.1142 43.0876 26.895 42.7647 21.7452C42.7608 21.7085 42.7608 21.6718 42.7568 21.6351C42.7253 21.3007 42.9576 20.999 43.2845 20.9623C43.6073 20.9297 43.8987 21.1703 43.9341 21.5087C43.9381 21.5576 43.942 21.6065 43.946 21.6555V21.6595C44.2728 26.8624 44.2728 32.1346 43.946 37.3374V37.3415C43.8357 38.9032 43.123 40.4363 41.9378 41.6677C40.7526 42.895 39.2682 43.633 37.7601 43.7472H37.7562C35.248 43.9144 32.7162 44 30.1883 44Z" fill="white"/>
<path d="M41.52 17.0443C41.9059 17.0443 42.2169 17.3705 42.2169 17.766C42.2169 18.1656 41.9019 18.4877 41.52 18.4877C41.1341 18.4877 40.8191 18.1615 40.8191 17.766C40.8191 17.3705 41.1341 17.0443 41.52 17.0443ZM41.52 15.821C40.4805 15.821 39.6379 16.6936 39.6379 17.766C39.6379 18.8384 40.4805 19.711 41.52 19.711C42.5595 19.711 43.3982 18.8384 43.3982 17.766C43.3982 16.6936 42.5555 15.821 41.52 15.821Z" fill="white"/>
<path d="M22.6914 34.4627C22.5418 34.4627 22.3882 34.4015 22.274 34.2833C22.0417 34.0427 22.0417 33.6553 22.274 33.4188L27.4203 28.0896C27.5305 27.9754 27.6802 27.9102 27.8377 27.9102C27.9952 27.9102 28.1448 27.9754 28.255 28.0896L31.1333 31.0702L37.2719 24.7134C37.5042 24.4728 37.8783 24.4728 38.1067 24.7134C38.339 24.954 38.339 25.3413 38.1067 25.5778L31.5507 32.3668C31.4405 32.481 31.2908 32.5463 31.1333 32.5463C30.9758 32.5463 30.8262 32.481 30.716 32.3668L27.8377 29.3862L23.1087 34.2833C22.9906 34.4056 22.841 34.4627 22.6914 34.4627Z" fill="white"/>
</g>
<defs>
<clipPath id="clip0_1847_48075">
<rect width="28" height="29" fill="white" transform="translate(16.1895 15)"/>
</clipPath>
</defs>
</svg>
