<svg xmlns="http://www.w3.org/2000/svg" xmlns:xlink="http://www.w3.org/1999/xlink" width="53.352" height="53.352" viewBox="0 0 53.352 53.352">
  <defs>
    <clipPath id="clip-path">
      <rect id="Rectangle_541" data-name="Rectangle 541" width="25.609" height="25.609" transform="translate(0 0)" fill="#fff"/>
    </clipPath>
  </defs>
  <g id="Group_696" data-name="Group 696" transform="translate(-9162.992 -10353.695)">
    <g id="Group_733" data-name="Group 733">
      <rect id="Rectangle_540" data-name="Rectangle 540" width="53.352" height="53.352" rx="8" transform="translate(9162.992 10353.695)" fill="#16c35b"/>
      <g id="Group_412" data-name="Group 412" transform="translate(9176.862 10367.565)" clip-path="url(#clip-path)">
        <path id="Path_2398" data-name="Path 2398" d="M40.8,52.609c-2.312,0-4.628-.076-6.922-.223h0a6.4,6.4,0,0,1-5.654-5.657v0a107,107,0,0,1,0-13.845v0a6.406,6.406,0,0,1,5.654-5.653h0a107.031,107.031,0,0,1,13.847,0h0l.13.011a.541.541,0,1,1-.112,1.077.877.877,0,0,0-.1-.007,106.1,106.1,0,0,0-13.7,0A5.327,5.327,0,0,0,29.3,32.956a106.068,106.068,0,0,0,0,13.7,5.331,5.331,0,0,0,4.653,4.652,106.105,106.105,0,0,0,13.7,0,5.331,5.331,0,0,0,4.653-4.652,106.072,106.072,0,0,0,0-13.7c0-.032,0-.065-.007-.1a.541.541,0,0,1,1.077-.112l.011.13v0a107,107,0,0,1,0,13.845v0a6.4,6.4,0,0,1-5.658,5.657h0C45.431,52.533,43.115,52.609,40.8,52.609Z" transform="translate(-28 -27)" fill="#fff"/>
        <path id="Path_2399" data-name="Path 2399" d="M49.82,28.76a.637.637,0,1,1-.641.637A.639.639,0,0,1,49.82,28.76Zm0-1.08A1.718,1.718,0,1,0,51.538,29.4,1.72,1.72,0,0,0,49.82,27.679Z" transform="translate(-26.653 -26.954)" fill="#fff"/>
        <path id="Path_2400" data-name="Path 2400" d="M33.607,43.658a.544.544,0,0,1-.382-.158.537.537,0,0,1,0-.763l4.707-4.706a.539.539,0,0,1,.763,0l2.632,2.632,5.614-5.613a.54.54,0,0,1,.763.763l-6,6a.539.539,0,0,1-.763,0l-2.632-2.632L33.989,43.5A.534.534,0,0,1,33.607,43.658Z" transform="translate(-27.66 -26.471)" fill="#fff"/>
      </g>
    </g>
  </g>
</svg>
