<svg xmlns="http://www.w3.org/2000/svg" xmlns:xlink="http://www.w3.org/1999/xlink" width="56" height="56" viewBox="0 0 56 56">
  <defs>
    <clipPath id="clip-path">
      <rect id="Rectangle_839" data-name="Rectangle 839" width="56" height="56" transform="translate(0.416 0.416)" fill="#fff"/>
    </clipPath>
  </defs>
  <g id="Group_697" data-name="Group 697" transform="translate(-0.416 -0.416)" clip-path="url(#clip-path)">
    <path id="Path_3622" data-name="Path 3622" d="M202.549,184.514c5.26,0,10.59.176,15.85.518a11.142,11.142,0,0,1,9.662,9.66,243.947,243.947,0,0,1,0,31.7,11.143,11.143,0,0,1-9.662,9.657c-5.26.345-10.589.521-15.85.521s-10.592-.176-15.852-.521a11.143,11.143,0,0,1-9.662-9.657,243.947,243.947,0,0,1,0-31.7,11.142,11.142,0,0,1,9.662-9.66C191.957,184.68,197.286,184.514,202.549,184.514Zm0-2.514q-8.019,0-16.028.518a13.653,13.653,0,0,0-12,12,246.7,246.7,0,0,0,0,32.042,13.653,13.653,0,0,0,12,12q8.015.514,16.028.518t16.026-.518a13.651,13.651,0,0,0,12-12,246.683,246.683,0,0,0,0-32.042,13.651,13.651,0,0,0-12-12Q210.559,181.99,202.549,182Z" transform="translate(-174.276 -182.276)" fill="#fff"/>
    <path id="Path_3623" data-name="Path 3623" d="M181.074,216.424a1.254,1.254,0,0,1-1.256-1.256V190.347a1.257,1.257,0,0,1,2.514,0v24.822A1.255,1.255,0,0,1,181.074,216.424Z" transform="translate(-166.258 -172.504)" fill="#fff"/>
    <path id="Path_3624" data-name="Path 3624" d="M186.734,209.245a1.255,1.255,0,0,1-1.258-1.256V195.557a1.257,1.257,0,0,1,2.514,0v12.433A1.254,1.254,0,0,1,186.734,209.245Z" transform="translate(-158.461 -165.324)" fill="#fff"/>
    <path id="Path_3625" data-name="Path 3625" d="M192.392,212.614a1.255,1.255,0,0,1-1.258-1.256V193.114a1.257,1.257,0,1,1,2.514,0v18.245A1.254,1.254,0,0,1,192.392,212.614Z" transform="translate(-150.664 -168.694)" fill="#fff"/>
  </g>
</svg>
