<svg width="19" height="13" viewBox="0 0 19 13" fill="none" xmlns="http://www.w3.org/2000/svg">
<path d="M17.817 10.7363L10.0558 0.885524C9.91028 0.700795 9.71287 0.597015 9.50704 0.597015C9.30121 0.597015 9.1038 0.700795 8.95825 0.885524L1.19706 10.7363C1.08852 10.8741 1.01459 11.0496 0.984643 11.2407C0.954693 11.4317 0.970061 11.6298 1.0288 11.8098C1.08755 11.9898 1.18702 12.1437 1.31466 12.2519C1.44229 12.3601 1.59235 12.4179 1.74585 12.4179H17.2682C17.4217 12.4179 17.5718 12.3601 17.6994 12.2519C17.8271 12.1437 17.9265 11.9898 17.9853 11.8098C18.044 11.6298 18.0594 11.4317 18.0294 11.2407C17.9995 11.0496 17.9256 10.8741 17.817 10.7363V10.7363Z" fill="#16C35B"/>
</svg>
