<svg width="1495" height="308" viewBox="0 0 1495 308" fill="none" xmlns="http://www.w3.org/2000/svg">
<g filter="url(#filter0_d_1316_31486)">
<rect x="102" y="98" width="1291" height="104" rx="18.0553" fill="white"/>
</g>
<path d="M1324 152.092C1324 135.473 1337.47 122 1354.09 122C1370.71 122 1384.18 135.473 1384.18 152.092C1384.18 168.712 1370.71 182.184 1354.09 182.184C1337.47 182.184 1324 168.712 1324 152.092Z" fill="#001833"/>
<path d="M1360.11 148.686C1359.89 148.462 1359.58 148.336 1359.26 148.336C1358.94 148.336 1358.64 148.462 1358.41 148.686L1354.09 152.947L1349.83 148.686C1349.61 148.462 1349.3 148.336 1348.98 148.336C1348.66 148.336 1348.36 148.462 1348.13 148.686C1348.02 148.798 1347.93 148.931 1347.87 149.078C1347.81 149.224 1347.78 149.382 1347.78 149.541C1347.78 149.699 1347.81 149.857 1347.87 150.003C1347.93 150.15 1348.02 150.283 1348.13 150.395L1353.24 155.499C1353.35 155.612 1353.48 155.701 1353.63 155.762C1353.78 155.823 1353.93 155.855 1354.09 155.855C1354.25 155.855 1354.41 155.823 1354.56 155.762C1354.7 155.701 1354.83 155.612 1354.95 155.499L1360.11 150.395C1360.22 150.283 1360.31 150.15 1360.37 150.003C1360.44 149.857 1360.47 149.699 1360.47 149.541C1360.47 149.382 1360.44 149.224 1360.37 149.078C1360.31 148.931 1360.22 148.798 1360.11 148.686Z" fill="white"/>
<rect x="117" y="112.164" width="288.885" height="77.0361" rx="16.8516" fill="#F0D6FF"/>
<path d="M201.775 171.518C201.775 170.699 201.96 169.965 202.329 169.315C202.698 168.657 203.2 168.144 203.834 167.774C204.476 167.405 205.186 167.221 205.964 167.221C206.879 167.221 207.677 167.441 208.36 167.883C209.042 168.324 209.539 168.95 209.852 169.76H208.54C208.307 169.255 207.97 168.866 207.529 168.593C207.096 168.32 206.574 168.184 205.964 168.184C205.378 168.184 204.853 168.32 204.387 168.593C203.922 168.866 203.557 169.255 203.292 169.76C203.027 170.258 202.895 170.844 202.895 171.518C202.895 172.184 203.027 172.77 203.292 173.275C203.557 173.773 203.922 174.158 204.387 174.431C204.853 174.704 205.378 174.84 205.964 174.84C206.574 174.84 207.096 174.708 207.529 174.443C207.97 174.17 208.307 173.781 208.54 173.275H209.852C209.539 174.078 209.042 174.7 208.36 175.141C207.677 175.574 206.879 175.791 205.964 175.791C205.186 175.791 204.476 175.61 203.834 175.249C203.2 174.88 202.698 174.371 202.329 173.721C201.96 173.071 201.775 172.336 201.775 171.518ZM214.359 175.827C213.742 175.827 213.18 175.687 212.674 175.406C212.177 175.125 211.784 174.728 211.495 174.214C211.214 173.693 211.073 173.091 211.073 172.409C211.073 171.735 211.218 171.141 211.507 170.627C211.804 170.106 212.205 169.708 212.71 169.435C213.216 169.155 213.782 169.014 214.408 169.014C215.034 169.014 215.599 169.155 216.105 169.435C216.61 169.708 217.008 170.102 217.296 170.615C217.593 171.129 217.742 171.727 217.742 172.409C217.742 173.091 217.589 173.693 217.284 174.214C216.988 174.728 216.582 175.125 216.069 175.406C215.555 175.687 214.985 175.827 214.359 175.827ZM214.359 174.864C214.753 174.864 215.122 174.772 215.467 174.587C215.812 174.403 216.089 174.126 216.297 173.757C216.514 173.388 216.622 172.938 216.622 172.409C216.622 171.879 216.518 171.43 216.309 171.06C216.101 170.691 215.828 170.419 215.491 170.242C215.154 170.057 214.789 169.965 214.396 169.965C213.994 169.965 213.625 170.057 213.288 170.242C212.959 170.419 212.694 170.691 212.494 171.06C212.293 171.43 212.193 171.879 212.193 172.409C212.193 172.946 212.289 173.4 212.482 173.769C212.682 174.138 212.947 174.415 213.276 174.599C213.605 174.776 213.966 174.864 214.359 174.864ZM227.114 169.002C227.628 169.002 228.085 169.11 228.487 169.327C228.888 169.536 229.205 169.853 229.437 170.278C229.67 170.703 229.787 171.221 229.787 171.831V175.719H228.703V171.987C228.703 171.329 228.539 170.828 228.21 170.483C227.889 170.13 227.451 169.953 226.898 169.953C226.328 169.953 225.875 170.138 225.538 170.507C225.2 170.868 225.032 171.393 225.032 172.084V175.719H223.949V171.987C223.949 171.329 223.784 170.828 223.455 170.483C223.134 170.13 222.697 169.953 222.143 169.953C221.573 169.953 221.12 170.138 220.783 170.507C220.446 170.868 220.277 171.393 220.277 172.084V175.719H219.182V169.123H220.277V170.073C220.494 169.728 220.783 169.464 221.144 169.279C221.513 169.094 221.918 169.002 222.36 169.002C222.913 169.002 223.403 169.127 223.828 169.375C224.254 169.624 224.571 169.989 224.779 170.471C224.964 170.005 225.269 169.644 225.694 169.387C226.119 169.131 226.593 169.002 227.114 169.002ZM232.679 170.338C232.895 169.961 233.216 169.648 233.642 169.399C234.075 169.143 234.577 169.014 235.146 169.014C235.732 169.014 236.262 169.155 236.735 169.435C237.217 169.716 237.594 170.114 237.867 170.627C238.139 171.133 238.276 171.723 238.276 172.397C238.276 173.063 238.139 173.656 237.867 174.178C237.594 174.7 237.217 175.105 236.735 175.394C236.262 175.683 235.732 175.827 235.146 175.827C234.585 175.827 234.087 175.703 233.654 175.454C233.228 175.197 232.903 174.88 232.679 174.503V178.848H231.583V169.123H232.679V170.338ZM237.156 172.397C237.156 171.899 237.056 171.466 236.855 171.097C236.655 170.727 236.382 170.447 236.037 170.254C235.7 170.061 235.327 169.965 234.918 169.965C234.516 169.965 234.143 170.065 233.798 170.266C233.461 170.459 233.188 170.744 232.98 171.121C232.779 171.49 232.679 171.919 232.679 172.409C232.679 172.906 232.779 173.343 232.98 173.721C233.188 174.09 233.461 174.375 233.798 174.575C234.143 174.768 234.516 174.864 234.918 174.864C235.327 174.864 235.7 174.768 236.037 174.575C236.382 174.375 236.655 174.09 236.855 173.721C237.056 173.343 237.156 172.902 237.156 172.397ZM240.813 166.811V175.719H239.718V166.811H240.813ZM243.246 168.051C243.037 168.051 242.86 167.979 242.716 167.835C242.572 167.69 242.499 167.514 242.499 167.305C242.499 167.096 242.572 166.92 242.716 166.775C242.86 166.631 243.037 166.559 243.246 166.559C243.446 166.559 243.615 166.631 243.751 166.775C243.896 166.92 243.968 167.096 243.968 167.305C243.968 167.514 243.896 167.69 243.751 167.835C243.615 167.979 243.446 168.051 243.246 168.051ZM243.775 169.123V175.719H242.68V169.123H243.775ZM245.233 172.397C245.233 171.723 245.369 171.133 245.642 170.627C245.915 170.114 246.288 169.716 246.761 169.435C247.243 169.155 247.777 169.014 248.362 169.014C248.94 169.014 249.442 169.139 249.867 169.387C250.292 169.636 250.609 169.949 250.818 170.326V169.123H251.925V175.719H250.818V174.491C250.601 174.876 250.276 175.197 249.843 175.454C249.418 175.703 248.92 175.827 248.35 175.827C247.765 175.827 247.235 175.683 246.761 175.394C246.288 175.105 245.915 174.7 245.642 174.178C245.369 173.656 245.233 173.063 245.233 172.397ZM250.818 172.409C250.818 171.911 250.718 171.478 250.517 171.109C250.316 170.739 250.044 170.459 249.698 170.266C249.361 170.065 248.988 169.965 248.579 169.965C248.17 169.965 247.797 170.061 247.46 170.254C247.123 170.447 246.854 170.727 246.653 171.097C246.453 171.466 246.352 171.899 246.352 172.397C246.352 172.902 246.453 173.343 246.653 173.721C246.854 174.09 247.123 174.375 247.46 174.575C247.797 174.768 248.17 174.864 248.579 174.864C248.988 174.864 249.361 174.768 249.698 174.575C250.044 174.375 250.316 174.09 250.517 173.721C250.718 173.343 250.818 172.906 250.818 172.409ZM256.99 169.002C257.793 169.002 258.443 169.247 258.94 169.736C259.438 170.218 259.686 170.916 259.686 171.831V175.719H258.603V171.987C258.603 171.329 258.439 170.828 258.11 170.483C257.781 170.13 257.331 169.953 256.762 169.953C256.184 169.953 255.722 170.134 255.377 170.495C255.04 170.856 254.872 171.381 254.872 172.072V175.719H253.776V169.123H254.872V170.061C255.088 169.724 255.381 169.464 255.75 169.279C256.128 169.094 256.541 169.002 256.99 169.002ZM261.066 172.409C261.066 171.727 261.203 171.133 261.476 170.627C261.749 170.114 262.126 169.716 262.607 169.435C263.097 169.155 263.654 169.014 264.28 169.014C265.091 169.014 265.757 169.211 266.278 169.604C266.808 169.997 267.157 170.543 267.326 171.241H266.146C266.034 170.84 265.813 170.523 265.484 170.29C265.163 170.057 264.762 169.941 264.28 169.941C263.654 169.941 263.149 170.158 262.764 170.591C262.378 171.016 262.186 171.622 262.186 172.409C262.186 173.203 262.378 173.817 262.764 174.25C263.149 174.684 263.654 174.9 264.28 174.9C264.762 174.9 265.163 174.788 265.484 174.563C265.805 174.339 266.026 174.018 266.146 173.6H267.326C267.149 174.274 266.796 174.816 266.266 175.225C265.737 175.626 265.075 175.827 264.28 175.827C263.654 175.827 263.097 175.687 262.607 175.406C262.126 175.125 261.749 174.728 261.476 174.214C261.203 173.701 261.066 173.099 261.066 172.409ZM274.806 172.168C274.806 172.377 274.794 172.597 274.77 172.83H269.497C269.537 173.48 269.758 173.989 270.159 174.359C270.569 174.72 271.062 174.9 271.64 174.9C272.113 174.9 272.507 174.792 272.82 174.575C273.141 174.351 273.365 174.054 273.494 173.685H274.673C274.497 174.318 274.144 174.836 273.614 175.237C273.084 175.63 272.426 175.827 271.64 175.827C271.014 175.827 270.452 175.687 269.955 175.406C269.465 175.125 269.08 174.728 268.799 174.214C268.518 173.693 268.378 173.091 268.378 172.409C268.378 171.727 268.514 171.129 268.787 170.615C269.06 170.102 269.441 169.708 269.931 169.435C270.428 169.155 270.998 169.014 271.64 169.014C272.266 169.014 272.82 169.151 273.301 169.423C273.783 169.696 274.152 170.073 274.408 170.555C274.673 171.028 274.806 171.566 274.806 172.168ZM273.674 171.939C273.674 171.522 273.582 171.165 273.397 170.868C273.213 170.563 272.96 170.334 272.639 170.182C272.326 170.021 271.977 169.941 271.592 169.941C271.038 169.941 270.565 170.118 270.171 170.471C269.786 170.824 269.566 171.313 269.509 171.939H273.674ZM278.587 175.827C278.081 175.827 277.628 175.743 277.226 175.574C276.825 175.398 276.508 175.157 276.276 174.852C276.043 174.539 275.914 174.182 275.89 173.781H277.022C277.054 174.11 277.206 174.379 277.479 174.587C277.76 174.796 278.125 174.9 278.575 174.9C278.992 174.9 279.321 174.808 279.562 174.623C279.802 174.439 279.923 174.206 279.923 173.925C279.923 173.636 279.794 173.424 279.538 173.287C279.281 173.143 278.884 173.002 278.346 172.866C277.856 172.738 277.455 172.609 277.142 172.481C276.837 172.344 276.572 172.148 276.348 171.891C276.131 171.626 276.023 171.281 276.023 170.856C276.023 170.519 276.123 170.21 276.324 169.929C276.524 169.648 276.809 169.427 277.178 169.267C277.547 169.098 277.969 169.014 278.442 169.014C279.172 169.014 279.762 169.199 280.212 169.568C280.661 169.937 280.902 170.443 280.934 171.085H279.838C279.814 170.739 279.674 170.463 279.417 170.254C279.168 170.045 278.831 169.941 278.406 169.941C278.013 169.941 277.7 170.025 277.467 170.194C277.234 170.362 277.118 170.583 277.118 170.856C277.118 171.073 277.186 171.253 277.323 171.398C277.467 171.534 277.644 171.646 277.852 171.735C278.069 171.815 278.366 171.907 278.743 172.011C279.217 172.14 279.602 172.268 279.899 172.397C280.196 172.517 280.448 172.702 280.657 172.95C280.874 173.199 280.986 173.524 280.994 173.925C280.994 174.286 280.894 174.611 280.693 174.9C280.492 175.189 280.208 175.418 279.838 175.586C279.477 175.747 279.06 175.827 278.587 175.827ZM288.409 175.803C287.856 175.803 287.358 175.707 286.917 175.514C286.484 175.314 286.143 175.041 285.894 174.696C285.645 174.343 285.517 173.937 285.509 173.48H286.676C286.716 173.873 286.877 174.206 287.158 174.479C287.447 174.744 287.864 174.876 288.409 174.876C288.931 174.876 289.34 174.748 289.637 174.491C289.942 174.226 290.095 173.889 290.095 173.48C290.095 173.159 290.006 172.898 289.83 172.697C289.653 172.497 289.433 172.344 289.168 172.24C288.903 172.136 288.546 172.023 288.097 171.903C287.543 171.759 287.097 171.614 286.76 171.47C286.431 171.325 286.147 171.101 285.906 170.796C285.673 170.483 285.557 170.065 285.557 169.544C285.557 169.086 285.673 168.681 285.906 168.328C286.139 167.975 286.464 167.702 286.881 167.51C287.306 167.317 287.792 167.221 288.337 167.221C289.124 167.221 289.766 167.417 290.263 167.811C290.769 168.204 291.054 168.725 291.118 169.375H289.914C289.874 169.054 289.705 168.773 289.409 168.533C289.112 168.284 288.718 168.16 288.229 168.16C287.772 168.16 287.398 168.28 287.11 168.521C286.821 168.753 286.676 169.082 286.676 169.508C286.676 169.813 286.76 170.061 286.929 170.254C287.105 170.447 287.318 170.595 287.567 170.699C287.824 170.796 288.181 170.908 288.638 171.036C289.192 171.189 289.637 171.341 289.974 171.494C290.311 171.638 290.6 171.867 290.841 172.18C291.082 172.485 291.202 172.902 291.202 173.432C291.202 173.841 291.094 174.226 290.877 174.587C290.66 174.948 290.339 175.241 289.914 175.466C289.489 175.691 288.987 175.803 288.409 175.803ZM292.405 172.409C292.405 171.727 292.541 171.133 292.814 170.627C293.087 170.114 293.464 169.716 293.945 169.435C294.435 169.155 294.993 169.014 295.619 169.014C296.429 169.014 297.095 169.211 297.617 169.604C298.146 169.997 298.495 170.543 298.664 171.241H297.484C297.372 170.84 297.151 170.523 296.822 170.29C296.501 170.057 296.1 169.941 295.619 169.941C294.993 169.941 294.487 170.158 294.102 170.591C293.717 171.016 293.524 171.622 293.524 172.409C293.524 173.203 293.717 173.817 294.102 174.25C294.487 174.684 294.993 174.9 295.619 174.9C296.1 174.9 296.501 174.788 296.822 174.563C297.143 174.339 297.364 174.018 297.484 173.6H298.664C298.487 174.274 298.134 174.816 297.605 175.225C297.075 175.626 296.413 175.827 295.619 175.827C294.993 175.827 294.435 175.687 293.945 175.406C293.464 175.125 293.087 174.728 292.814 174.214C292.541 173.701 292.405 173.099 292.405 172.409ZM299.716 172.397C299.716 171.723 299.853 171.133 300.125 170.627C300.398 170.114 300.771 169.716 301.245 169.435C301.726 169.155 302.26 169.014 302.846 169.014C303.424 169.014 303.925 169.139 304.35 169.387C304.776 169.636 305.093 169.949 305.301 170.326V169.123H306.409V175.719H305.301V174.491C305.085 174.876 304.76 175.197 304.326 175.454C303.901 175.703 303.403 175.827 302.834 175.827C302.248 175.827 301.718 175.683 301.245 175.394C300.771 175.105 300.398 174.7 300.125 174.178C299.853 173.656 299.716 173.063 299.716 172.397ZM305.301 172.409C305.301 171.911 305.201 171.478 305 171.109C304.8 170.739 304.527 170.459 304.182 170.266C303.845 170.065 303.472 169.965 303.062 169.965C302.653 169.965 302.28 170.061 301.943 170.254C301.606 170.447 301.337 170.727 301.137 171.097C300.936 171.466 300.836 171.899 300.836 172.397C300.836 172.902 300.936 173.343 301.137 173.721C301.337 174.09 301.606 174.375 301.943 174.575C302.28 174.768 302.653 174.864 303.062 174.864C303.472 174.864 303.845 174.768 304.182 174.575C304.527 174.375 304.8 174.09 305 173.721C305.201 173.343 305.301 172.906 305.301 172.409ZM311.474 169.002C312.276 169.002 312.926 169.247 313.424 169.736C313.921 170.218 314.17 170.916 314.17 171.831V175.719H313.087V171.987C313.087 171.329 312.922 170.828 312.593 170.483C312.264 170.13 311.815 169.953 311.245 169.953C310.667 169.953 310.206 170.134 309.861 170.495C309.524 170.856 309.355 171.381 309.355 172.072V175.719H308.26V169.123H309.355V170.061C309.572 169.724 309.865 169.464 310.234 169.279C310.611 169.094 311.024 169.002 311.474 169.002ZM319.173 169.002C319.975 169.002 320.625 169.247 321.123 169.736C321.62 170.218 321.869 170.916 321.869 171.831V175.719H320.786V171.987C320.786 171.329 320.621 170.828 320.292 170.483C319.963 170.13 319.514 169.953 318.944 169.953C318.366 169.953 317.905 170.134 317.56 170.495C317.223 170.856 317.054 171.381 317.054 172.072V175.719H315.959V169.123H317.054V170.061C317.271 169.724 317.564 169.464 317.933 169.279C318.31 169.094 318.724 169.002 319.173 169.002ZM329.677 172.168C329.677 172.377 329.665 172.597 329.641 172.83H324.369C324.409 173.48 324.629 173.989 325.031 174.359C325.44 174.72 325.933 174.9 326.511 174.9C326.985 174.9 327.378 174.792 327.691 174.575C328.012 174.351 328.237 174.054 328.365 173.685H329.545C329.368 174.318 329.015 174.836 328.485 175.237C327.956 175.63 327.298 175.827 326.511 175.827C325.885 175.827 325.324 175.687 324.826 175.406C324.337 175.125 323.951 174.728 323.671 174.214C323.39 173.693 323.249 173.091 323.249 172.409C323.249 171.727 323.386 171.129 323.658 170.615C323.931 170.102 324.312 169.708 324.802 169.435C325.3 169.155 325.869 169.014 326.511 169.014C327.137 169.014 327.691 169.151 328.172 169.423C328.654 169.696 329.023 170.073 329.28 170.555C329.545 171.028 329.677 171.566 329.677 172.168ZM328.545 171.939C328.545 171.522 328.453 171.165 328.269 170.868C328.084 170.563 327.831 170.334 327.51 170.182C327.197 170.021 326.848 169.941 326.463 169.941C325.909 169.941 325.436 170.118 325.043 170.471C324.658 170.824 324.437 171.313 324.381 171.939H328.545ZM330.714 172.397C330.714 171.723 330.85 171.133 331.123 170.627C331.396 170.114 331.769 169.716 332.242 169.435C332.724 169.155 333.261 169.014 333.855 169.014C334.369 169.014 334.846 169.135 335.288 169.375C335.729 169.608 336.066 169.917 336.299 170.302V166.811H337.406V175.719H336.299V174.479C336.082 174.872 335.761 175.197 335.336 175.454C334.91 175.703 334.413 175.827 333.843 175.827C333.257 175.827 332.724 175.683 332.242 175.394C331.769 175.105 331.396 174.7 331.123 174.178C330.85 173.656 330.714 173.063 330.714 172.397ZM336.299 172.409C336.299 171.911 336.198 171.478 335.998 171.109C335.797 170.739 335.524 170.459 335.179 170.266C334.842 170.065 334.469 169.965 334.06 169.965C333.651 169.965 333.277 170.061 332.94 170.254C332.603 170.447 332.334 170.727 332.134 171.097C331.933 171.466 331.833 171.899 331.833 172.397C331.833 172.902 331.933 173.343 332.134 173.721C332.334 174.09 332.603 174.375 332.94 174.575C333.277 174.768 333.651 174.864 334.06 174.864C334.469 174.864 334.842 174.768 335.179 174.575C335.524 174.375 335.797 174.09 335.998 173.721C336.198 173.343 336.299 172.906 336.299 172.409Z" fill="#101010"/>
<path d="M208.843 133.598H205.755L200.512 137.024V140.061L205.539 136.778H205.662V154.607H208.843V133.598ZM215.234 154.607H218.547L227.688 136.408V133.598H213.798V136.316H224.405V136.47L215.234 154.607ZM237.908 154.895C242.135 154.895 245.151 151.909 245.14 147.816C245.151 143.754 242.319 140.799 238.493 140.799C236.933 140.799 235.487 141.394 234.666 142.194H234.543L235.21 136.316H244.125V133.598H232.574L231.394 144.185L234.297 144.615C235.087 143.908 236.503 143.425 237.775 143.425C240.268 143.446 242.073 145.313 242.073 147.878C242.073 150.401 240.319 152.227 237.908 152.227C235.877 152.227 234.266 150.935 234.102 149.129H231.024C231.148 152.474 234.051 154.895 237.908 154.895ZM256.222 154.895C260.613 154.936 263.527 151.776 263.516 147.744C263.527 143.723 260.603 140.84 256.961 140.84C254.745 140.84 252.827 141.907 251.75 143.682H251.596C251.606 138.912 253.412 136.08 256.489 136.08C258.51 136.08 259.782 137.311 260.213 139.055H263.342C262.86 135.731 260.244 133.31 256.489 133.31C251.606 133.31 248.559 137.506 248.559 144.81C248.549 152.545 252.488 154.864 256.222 154.895ZM256.212 152.227C253.771 152.227 251.986 150.176 251.986 147.816C251.996 145.467 253.863 143.415 256.284 143.415C258.685 143.415 260.449 145.354 260.439 147.785C260.449 150.268 258.613 152.227 256.212 152.227Z" fill="#101010"/>
<rect x="126.63" y="120.59" width="60.1844" height="60.1844" rx="16.8516" fill="#622E80"/>
<g clip-path="url(#clip0_1316_31486)">
<path d="M156.727 137.51C159.39 137.51 162.088 137.599 164.751 137.773C165.9 137.858 167.096 138.443 168.033 139.38C168.97 140.317 169.556 141.513 169.641 142.662C169.988 147.984 169.988 153.386 169.641 158.707C169.556 159.856 168.97 161.052 168.033 161.989C167.096 162.926 165.9 163.511 164.751 163.596C162.088 163.77 159.39 163.859 156.727 163.859C154.064 163.859 151.367 163.77 148.703 163.596C147.554 163.511 146.358 162.926 145.421 161.989C144.484 161.052 143.898 159.856 143.814 158.707C143.466 153.386 143.466 147.984 143.814 142.662C143.898 141.513 144.484 140.317 145.421 139.38C146.358 138.443 147.554 137.858 148.703 137.773C151.367 137.595 154.064 137.51 156.727 137.51ZM156.727 136.238C154.021 136.238 151.32 136.327 148.614 136.501C145.574 136.722 142.762 139.529 142.541 142.573C142.189 147.979 142.189 153.386 142.541 158.792C142.762 161.832 145.569 164.643 148.614 164.864C151.32 165.038 154.021 165.127 156.727 165.127C159.433 165.127 162.134 165.038 164.84 164.864C167.881 164.643 170.692 161.836 170.913 158.792C171.265 153.386 171.265 147.979 170.913 142.573C170.692 139.533 167.885 136.722 164.84 136.501C162.134 136.323 159.433 136.238 156.727 136.238Z" fill="white"/>
<path d="M149.916 158.611C149.564 158.611 149.28 158.327 149.28 157.975V145.411C149.28 145.059 149.564 144.775 149.916 144.775C150.268 144.775 150.553 145.059 150.553 145.411V157.975C150.553 158.327 150.268 158.611 149.916 158.611Z" fill="white"/>
<path d="M156.727 158.609C156.375 158.609 156.091 158.325 156.091 157.973V151.681C156.091 151.329 156.375 151.045 156.727 151.045C157.079 151.045 157.363 151.329 157.363 151.681V157.973C157.363 158.325 157.079 158.609 156.727 158.609Z" fill="white"/>
<path d="M163.538 158.609C163.186 158.609 162.902 158.325 162.902 157.973V148.738C162.902 148.386 163.186 148.102 163.538 148.102C163.89 148.102 164.174 148.386 164.174 148.738V157.973C164.174 158.325 163.89 158.609 163.538 158.609Z" fill="white"/>
</g>
<g opacity="0.3">
<circle cx="379.404" cy="125.405" r="1.20369" fill="#101010"/>
<circle cx="384.218" cy="125.405" r="1.20369" fill="#101010"/>
<circle cx="389.034" cy="125.405" r="1.20369" fill="#101010"/>
</g>
<rect x="420" y="112" width="490" height="77" rx="16.8516" fill="#FBF2E4"/>
<rect x="434.189" y="120.998" width="60" height="60" rx="16.8516" fill="#FFAE18"/>
<g clip-path="url(#clip1_1316_31486)">
<path d="M464.188 165C461.66 165 459.129 164.914 456.62 164.747H456.616C455.108 164.633 453.628 163.895 452.443 162.668C451.258 161.44 450.545 159.903 450.435 158.341V158.337C450.108 153.135 450.108 147.862 450.435 142.66V142.655C450.545 141.094 451.258 139.561 452.443 138.333C453.628 137.106 455.112 136.368 456.616 136.254H456.62C461.645 135.915 466.736 135.915 471.76 136.254H471.764C471.811 136.258 471.859 136.262 471.906 136.266C472.229 136.303 472.465 136.6 472.433 136.939C472.398 137.273 472.111 137.518 471.784 137.485C471.748 137.481 471.713 137.477 471.677 137.477C466.708 137.143 461.668 137.143 456.695 137.477C454.167 137.669 451.789 140.127 451.608 142.745C451.285 147.891 451.285 153.11 451.608 158.26C451.793 160.878 454.167 163.336 456.695 163.528C461.664 163.862 466.704 163.862 471.677 163.528C474.205 163.336 476.58 160.878 476.765 158.26C477.088 153.114 477.088 147.895 476.765 142.745C476.761 142.708 476.761 142.672 476.757 142.635C476.725 142.301 476.958 141.999 477.284 141.962C477.607 141.93 477.899 142.17 477.934 142.509C477.938 142.558 477.942 142.607 477.946 142.655V142.66C478.273 147.862 478.273 153.135 477.946 158.337V158.341C477.836 159.903 477.123 161.436 475.938 162.668C474.753 163.895 473.268 164.633 471.76 164.747H471.756C469.248 164.914 466.716 165 464.188 165Z" fill="white"/>
<path d="M475.52 138.044C475.906 138.044 476.217 138.37 476.217 138.765C476.217 139.165 475.902 139.487 475.52 139.487C475.134 139.487 474.819 139.161 474.819 138.765C474.819 138.37 475.134 138.044 475.52 138.044ZM475.52 136.82C474.481 136.82 473.638 137.693 473.638 138.765C473.638 139.838 474.481 140.71 475.52 140.71C476.56 140.71 477.398 139.838 477.398 138.765C477.398 137.693 476.556 136.82 475.52 136.82Z" fill="white"/>
<path d="M456.691 155.463C456.541 155.463 456.388 155.402 456.274 155.284C456.041 155.043 456.041 154.656 456.274 154.419L461.42 149.09C461.53 148.976 461.68 148.91 461.837 148.91C461.995 148.91 462.145 148.976 462.255 149.09L465.133 152.07L471.272 145.714C471.504 145.473 471.878 145.473 472.106 145.714C472.339 145.954 472.339 146.342 472.106 146.578L465.55 153.367C465.44 153.481 465.291 153.546 465.133 153.546C464.976 153.546 464.826 153.481 464.716 153.367L461.837 150.386L457.108 155.284C456.99 155.406 456.841 155.463 456.691 155.463Z" fill="white"/>
</g>
<path opacity="0.2" fill-rule="evenodd" clip-rule="evenodd" d="M541.654 145.785H561.841V181.058H541.654V145.785Z" fill="#FFAE18"/>
<path fill-rule="evenodd" clip-rule="evenodd" d="M569.412 128.652H589.599V181.058H569.412V128.652Z" fill="#FFAE18"/>
<path opacity="0.2" fill-rule="evenodd" clip-rule="evenodd" d="M598.43 136.715H618.617V181.058H598.43V136.715Z" fill="#FFAE18"/>
<path opacity="0.2" fill-rule="evenodd" clip-rule="evenodd" d="M655.205 145.785H675.392V181.058H655.205V145.785Z" fill="#FFAE18"/>
<path opacity="0.2" fill-rule="evenodd" clip-rule="evenodd" d="M682.962 150.824H703.149V181.058H682.962V150.824Z" fill="#FFAE18"/>
<path opacity="0.2" fill-rule="evenodd" clip-rule="evenodd" d="M711.98 136.715H732.167V181.058H711.98V136.715Z" fill="#FFAE18"/>
<path opacity="0.2" fill-rule="evenodd" clip-rule="evenodd" d="M739.737 153.848H759.924V181.058H739.737V153.848Z" fill="#FFAE18"/>
<path opacity="0.2" fill-rule="evenodd" clip-rule="evenodd" d="M626.187 153.848H646.374V181.058H626.187V153.848Z" fill="#FFAE18"/>
<path opacity="0.2" fill-rule="evenodd" clip-rule="evenodd" d="M768.755 145.785H788.942V181.058H768.755V145.785Z" fill="#FFAE18"/>
<path fill-rule="evenodd" clip-rule="evenodd" d="M796.512 128.652H816.699V181.058H796.512V128.652Z" fill="#FFAE18"/>
<path opacity="0.2" fill-rule="evenodd" clip-rule="evenodd" d="M825.531 136.715H845.718V181.058H825.531V136.715Z" fill="#FFAE18"/>
<path opacity="0.2" fill-rule="evenodd" clip-rule="evenodd" d="M881.044 145.785H901.231V181.058H881.044V145.785Z" fill="#FFAE18"/>
<path opacity="0.2" fill-rule="evenodd" clip-rule="evenodd" d="M853.287 153.848H873.474V181.058H853.287V153.848Z" fill="#FFAE18"/>
<g opacity="0.3">
<ellipse cx="889.276" cy="122.997" rx="0.698393" ry="1.20369" fill="#101010"/>
<ellipse cx="892.07" cy="122.997" rx="0.698393" ry="1.20369" fill="#101010"/>
<ellipse cx="894.864" cy="122.997" rx="0.698393" ry="1.20369" fill="#101010"/>
</g>
<rect x="926" y="113" width="373" height="75.9634" rx="13.6345" fill="#16C35B" fill-opacity="0.3"/>
<rect x="940.608" y="126.635" width="48.6945" height="48.6945" rx="13.6345" fill="#16C35B"/>
<g clip-path="url(#clip2_1316_31486)">
<path d="M964.954 162.668C962.844 162.668 960.731 162.599 958.637 162.465H958.634C957.375 162.373 956.139 161.778 955.149 160.789C954.16 159.799 953.565 158.56 953.473 157.302V157.298C953.2 153.105 953.2 148.856 953.473 144.662V144.659C953.565 143.4 954.16 142.165 955.149 141.176C956.139 140.186 957.378 139.592 958.634 139.499H958.637C962.831 139.227 967.081 139.227 971.275 139.499H971.278C971.318 139.503 971.357 139.506 971.397 139.509C971.666 139.539 971.863 139.779 971.837 140.052C971.807 140.321 971.567 140.518 971.295 140.492C971.265 140.489 971.236 140.485 971.206 140.485C967.058 140.216 962.851 140.216 958.699 140.485C956.589 140.64 954.604 142.622 954.453 144.731C954.183 148.879 954.183 153.085 954.453 157.236C954.607 159.346 956.589 161.327 958.699 161.482C962.847 161.751 967.055 161.751 971.206 161.482C973.316 161.327 975.298 159.346 975.453 157.236C975.722 153.089 975.722 148.882 975.453 144.731C975.449 144.702 975.449 144.672 975.446 144.643C975.42 144.373 975.614 144.13 975.886 144.1C976.156 144.074 976.399 144.268 976.429 144.541C976.432 144.58 976.435 144.62 976.439 144.659V144.662C976.711 148.856 976.711 153.105 976.439 157.298V157.302C976.347 158.56 975.752 159.796 974.762 160.789C973.773 161.778 972.534 162.373 971.275 162.465H971.272C969.178 162.599 967.064 162.668 964.954 162.668Z" fill="white"/>
<path d="M974.414 140.943C974.736 140.943 974.996 141.206 974.996 141.525C974.996 141.847 974.733 142.106 974.414 142.106C974.092 142.106 973.829 141.843 973.829 141.525C973.829 141.206 974.092 140.943 974.414 140.943ZM974.414 139.957C973.546 139.957 972.843 140.66 972.843 141.525C972.843 142.389 973.546 143.092 974.414 143.092C975.281 143.092 975.982 142.389 975.982 141.525C975.982 140.66 975.278 139.957 974.414 139.957Z" fill="white"/>
<path d="M958.696 154.982C958.571 154.982 958.443 154.932 958.348 154.837C958.154 154.643 958.154 154.331 958.348 154.14L962.644 149.845C962.736 149.753 962.86 149.7 962.992 149.7C963.123 149.7 963.248 149.753 963.34 149.845L965.743 152.247L970.867 147.124C971.061 146.93 971.373 146.93 971.564 147.124C971.758 147.318 971.758 147.63 971.564 147.821L966.091 153.292C965.999 153.384 965.875 153.437 965.743 153.437C965.612 153.437 965.487 153.384 965.395 153.292L962.992 150.89L959.044 154.837C958.946 154.936 958.821 154.982 958.696 154.982Z" fill="white"/>
</g>
<path d="M1021.31 139.583V136.568H1026.94V153.607H1023.58V139.583H1021.31ZM1032.66 149.914C1034.16 148.668 1035.35 147.632 1036.24 146.806C1037.13 145.964 1037.87 145.092 1038.46 144.188C1039.05 143.284 1039.35 142.396 1039.35 141.523C1039.35 140.729 1039.16 140.105 1038.79 139.654C1038.41 139.202 1037.84 138.976 1037.06 138.976C1036.28 138.976 1035.68 139.241 1035.26 139.77C1034.84 140.285 1034.62 140.994 1034.6 141.897H1031.42C1031.49 140.027 1032.04 138.61 1033.08 137.643C1034.14 136.677 1035.48 136.194 1037.1 136.194C1038.88 136.194 1040.24 136.67 1041.19 137.62C1042.15 138.555 1042.62 139.794 1042.62 141.336C1042.62 142.552 1042.29 143.713 1041.64 144.819C1040.98 145.925 1040.24 146.891 1039.4 147.717C1038.55 148.528 1037.46 149.509 1036.1 150.662H1042.99V153.374H1031.45V150.943L1032.66 149.914ZM1057.36 139.046L1051.15 153.607H1047.83L1054.09 139.42H1046.1V136.615H1057.36V139.046ZM1069.62 140.822C1069.46 140.168 1069.19 139.677 1068.8 139.35C1068.43 139.022 1067.88 138.859 1067.16 138.859C1066.09 138.859 1065.29 139.295 1064.78 140.168C1064.28 141.025 1064.02 142.427 1064.01 144.375C1064.38 143.752 1064.93 143.269 1065.65 142.926C1066.36 142.567 1067.14 142.388 1067.98 142.388C1069 142.388 1069.89 142.606 1070.67 143.043C1071.45 143.479 1072.06 144.118 1072.49 144.959C1072.93 145.785 1073.15 146.782 1073.15 147.951C1073.15 149.057 1072.92 150.047 1072.47 150.919C1072.03 151.777 1071.39 152.447 1070.53 152.93C1069.67 153.413 1068.65 153.654 1067.47 153.654C1065.85 153.654 1064.57 153.296 1063.63 152.579C1062.72 151.862 1062.07 150.865 1061.69 149.587C1061.34 148.294 1061.16 146.704 1061.16 144.819C1061.16 141.967 1061.65 139.817 1062.63 138.368C1063.61 136.903 1065.16 136.171 1067.28 136.171C1068.92 136.171 1070.19 136.615 1071.09 137.503C1071.99 138.391 1072.52 139.498 1072.66 140.822H1069.62ZM1067.23 145.076C1066.41 145.076 1065.72 145.318 1065.15 145.801C1064.59 146.284 1064.31 146.985 1064.31 147.904C1064.31 148.824 1064.57 149.548 1065.08 150.078C1065.61 150.608 1066.35 150.873 1067.3 150.873C1068.15 150.873 1068.81 150.616 1069.29 150.101C1069.79 149.587 1070.04 148.894 1070.04 148.021C1070.04 147.117 1069.8 146.401 1069.31 145.871C1068.85 145.341 1068.15 145.076 1067.23 145.076Z" fill="#101010"/>
<path d="M1028.25 172.906H1026.61L1022.91 167.308V172.906H1021.27V164.737H1022.91L1026.61 170.347V164.737H1028.25V172.906ZM1032.96 166.07V168.115H1035.71V169.412H1032.96V171.574H1036.06V172.906H1031.33V164.737H1036.06V166.07H1032.96ZM1049.91 164.749L1047.63 172.906H1045.71L1044.17 167.098L1042.57 172.906L1040.66 172.918L1038.46 164.749H1040.21L1041.65 171.083L1043.31 164.749H1045.13L1046.7 171.048L1048.15 164.749H1049.91ZM1056.29 168.816C1056.29 168.013 1056.47 167.297 1056.83 166.666C1057.19 166.027 1057.69 165.532 1058.31 165.181C1058.94 164.823 1059.65 164.644 1060.43 164.644C1061.34 164.644 1062.14 164.877 1062.82 165.345C1063.51 165.812 1063.99 166.459 1064.26 167.285H1062.38C1062.19 166.895 1061.93 166.603 1061.58 166.408C1061.25 166.214 1060.86 166.116 1060.42 166.116C1059.94 166.116 1059.52 166.229 1059.14 166.455C1058.78 166.673 1058.49 166.985 1058.28 167.39C1058.07 167.795 1057.97 168.271 1057.97 168.816C1057.97 169.353 1058.07 169.829 1058.28 170.242C1058.49 170.647 1058.78 170.962 1059.14 171.188C1059.52 171.406 1059.94 171.516 1060.42 171.516C1060.86 171.516 1061.25 171.418 1061.58 171.223C1061.93 171.021 1062.19 170.725 1062.38 170.335H1064.26C1063.99 171.169 1063.51 171.819 1062.82 172.287C1062.15 172.747 1061.35 172.976 1060.43 172.976C1059.65 172.976 1058.94 172.801 1058.31 172.45C1057.69 172.092 1057.19 171.597 1056.83 170.966C1056.47 170.335 1056.29 169.618 1056.29 168.816ZM1070.91 172.988C1070.14 172.988 1069.44 172.809 1068.8 172.45C1068.16 172.092 1067.66 171.597 1067.28 170.966C1066.91 170.327 1066.72 169.607 1066.72 168.804C1066.72 168.01 1066.91 167.297 1067.28 166.666C1067.66 166.027 1068.16 165.528 1068.8 165.17C1069.44 164.811 1070.14 164.632 1070.91 164.632C1071.68 164.632 1072.38 164.811 1073.01 165.17C1073.65 165.528 1074.15 166.027 1074.52 166.666C1074.89 167.297 1075.08 168.01 1075.08 168.804C1075.08 169.607 1074.89 170.327 1074.52 170.966C1074.15 171.597 1073.65 172.092 1073.01 172.45C1072.37 172.809 1071.67 172.988 1070.91 172.988ZM1070.91 171.527C1071.4 171.527 1071.83 171.418 1072.2 171.2C1072.58 170.974 1072.87 170.655 1073.08 170.242C1073.29 169.829 1073.39 169.35 1073.39 168.804C1073.39 168.259 1073.29 167.784 1073.08 167.378C1072.87 166.966 1072.58 166.65 1072.2 166.432C1071.83 166.214 1071.4 166.105 1070.91 166.105C1070.41 166.105 1069.98 166.214 1069.6 166.432C1069.22 166.65 1068.93 166.966 1068.72 167.378C1068.51 167.784 1068.4 168.259 1068.4 168.804C1068.4 169.35 1068.51 169.829 1068.72 170.242C1068.93 170.655 1069.22 170.974 1069.6 171.2C1069.98 171.418 1070.41 171.527 1070.91 171.527ZM1086.65 164.749V172.906H1085.01V167.6L1082.83 172.906H1081.59L1079.39 167.6V172.906H1077.76V164.749H1079.61L1082.21 170.814L1084.8 164.749H1086.65ZM1095.68 167.273C1095.68 167.71 1095.57 168.119 1095.36 168.5C1095.16 168.882 1094.83 169.19 1094.39 169.424C1093.95 169.657 1093.4 169.774 1092.73 169.774H1091.36V172.906H1089.73V164.749H1092.73C1093.36 164.749 1093.9 164.858 1094.34 165.076C1094.79 165.294 1095.12 165.594 1095.34 165.976C1095.56 166.358 1095.68 166.79 1095.68 167.273ZM1092.66 168.454C1093.11 168.454 1093.45 168.352 1093.67 168.15C1093.88 167.939 1093.99 167.647 1093.99 167.273C1093.99 166.479 1093.55 166.081 1092.66 166.081H1091.36V168.454H1092.66ZM1099.93 171.609H1102.62V172.906H1098.3V164.749H1099.93V171.609ZM1106.76 164.749V172.906H1105.12V164.749H1106.76ZM1114.84 171.352H1111.59L1111.05 172.906H1109.33L1112.27 164.737H1114.17L1117.11 172.906H1115.38L1114.84 171.352ZM1114.39 170.043L1113.21 166.631L1112.03 170.043H1114.39ZM1126.64 172.906H1125L1121.3 167.308V172.906H1119.66V164.737H1121.3L1125 170.347V164.737H1126.64V172.906ZM1129.32 168.816C1129.32 168.013 1129.5 167.297 1129.86 166.666C1130.22 166.027 1130.72 165.532 1131.34 165.181C1131.97 164.823 1132.68 164.644 1133.46 164.644C1134.37 164.644 1135.17 164.877 1135.85 165.345C1136.54 165.812 1137.02 166.459 1137.29 167.285H1135.41C1135.22 166.895 1134.96 166.603 1134.61 166.408C1134.28 166.214 1133.89 166.116 1133.45 166.116C1132.97 166.116 1132.55 166.229 1132.17 166.455C1131.81 166.673 1131.52 166.985 1131.31 167.39C1131.1 167.795 1131 168.271 1131 168.816C1131 169.353 1131.1 169.829 1131.31 170.242C1131.52 170.647 1131.81 170.962 1132.17 171.188C1132.55 171.406 1132.97 171.516 1133.45 171.516C1133.89 171.516 1134.28 171.418 1134.61 171.223C1134.96 171.021 1135.22 170.725 1135.41 170.335H1137.29C1137.02 171.169 1136.54 171.819 1135.85 172.287C1135.18 172.747 1134.38 172.976 1133.46 172.976C1132.68 172.976 1131.97 172.801 1131.34 172.45C1130.72 172.092 1130.22 171.597 1129.86 170.966C1129.5 170.335 1129.32 169.618 1129.32 168.816ZM1141.79 166.07V168.115H1144.53V169.412H1141.79V171.574H1144.88V172.906H1140.15V164.737H1144.88V166.07H1141.79ZM1150.65 172.988C1150.08 172.988 1149.56 172.891 1149.1 172.696C1148.65 172.501 1148.29 172.221 1148.03 171.854C1147.76 171.488 1147.63 171.056 1147.62 170.557H1149.37C1149.4 170.892 1149.51 171.157 1149.72 171.352C1149.94 171.547 1150.24 171.644 1150.61 171.644C1150.99 171.644 1151.29 171.554 1151.51 171.375C1151.73 171.188 1151.84 170.947 1151.84 170.651C1151.84 170.409 1151.76 170.211 1151.62 170.055C1151.47 169.899 1151.28 169.778 1151.06 169.692C1150.84 169.599 1150.53 169.498 1150.14 169.389C1149.61 169.233 1149.18 169.081 1148.85 168.933C1148.52 168.777 1148.24 168.547 1147.99 168.243C1147.76 167.932 1147.64 167.519 1147.64 167.004C1147.64 166.521 1147.76 166.101 1148.01 165.742C1148.25 165.384 1148.59 165.111 1149.02 164.924C1149.46 164.729 1149.96 164.632 1150.52 164.632C1151.36 164.632 1152.04 164.839 1152.56 165.251C1153.09 165.657 1153.39 166.225 1153.44 166.958H1151.64C1151.62 166.677 1151.5 166.447 1151.28 166.268C1151.06 166.081 1150.77 165.988 1150.4 165.988C1150.08 165.988 1149.82 166.07 1149.63 166.233C1149.44 166.397 1149.35 166.634 1149.35 166.946C1149.35 167.164 1149.42 167.347 1149.56 167.495C1149.71 167.636 1149.89 167.752 1150.1 167.846C1150.32 167.932 1150.62 168.033 1151.01 168.15C1151.54 168.306 1151.97 168.461 1152.31 168.617C1152.64 168.773 1152.93 169.007 1153.17 169.318C1153.41 169.63 1153.53 170.039 1153.53 170.546C1153.53 170.982 1153.42 171.387 1153.19 171.761C1152.97 172.135 1152.64 172.435 1152.2 172.661C1151.76 172.879 1151.25 172.988 1150.65 172.988ZM1160.26 168.816C1160.26 168.013 1160.44 167.297 1160.8 166.666C1161.16 166.027 1161.66 165.532 1162.28 165.181C1162.91 164.823 1163.62 164.644 1164.4 164.644C1165.31 164.644 1166.11 164.877 1166.79 165.345C1167.48 165.812 1167.96 166.459 1168.23 167.285H1166.35C1166.16 166.895 1165.9 166.603 1165.55 166.408C1165.22 166.214 1164.83 166.116 1164.39 166.116C1163.91 166.116 1163.49 166.229 1163.11 166.455C1162.75 166.673 1162.46 166.985 1162.25 167.39C1162.04 167.795 1161.94 168.271 1161.94 168.816C1161.94 169.353 1162.04 169.829 1162.25 170.242C1162.46 170.647 1162.75 170.962 1163.11 171.188C1163.49 171.406 1163.91 171.516 1164.39 171.516C1164.83 171.516 1165.22 171.418 1165.55 171.223C1165.9 171.021 1166.16 170.725 1166.35 170.335H1168.23C1167.96 171.169 1167.48 171.819 1166.79 172.287C1166.12 172.747 1165.32 172.976 1164.4 172.976C1163.62 172.976 1162.91 172.801 1162.28 172.45C1161.66 172.092 1161.16 171.597 1160.8 170.966C1160.44 170.335 1160.26 169.618 1160.26 168.816ZM1177.86 164.749V172.906H1176.22V169.435H1172.73V172.906H1171.09V164.749H1172.73V168.103H1176.22V164.749H1177.86ZM1182.56 166.07V168.115H1185.31V169.412H1182.56V171.574H1185.66V172.906H1180.93V164.737H1185.66V166.07H1182.56ZM1188.21 168.816C1188.21 168.013 1188.39 167.297 1188.75 166.666C1189.11 166.027 1189.61 165.532 1190.23 165.181C1190.86 164.823 1191.57 164.644 1192.35 164.644C1193.26 164.644 1194.06 164.877 1194.74 165.345C1195.43 165.812 1195.91 166.459 1196.18 167.285H1194.3C1194.11 166.895 1193.85 166.603 1193.5 166.408C1193.17 166.214 1192.78 166.116 1192.34 166.116C1191.86 166.116 1191.44 166.229 1191.06 166.455C1190.7 166.673 1190.41 166.985 1190.2 167.39C1189.99 167.795 1189.89 168.271 1189.89 168.816C1189.89 169.353 1189.99 169.829 1190.2 170.242C1190.41 170.647 1190.7 170.962 1191.06 171.188C1191.44 171.406 1191.86 171.516 1192.34 171.516C1192.78 171.516 1193.17 171.418 1193.5 171.223C1193.85 171.021 1194.11 170.725 1194.3 170.335H1196.18C1195.91 171.169 1195.43 171.819 1194.74 172.287C1194.07 172.747 1193.27 172.976 1192.35 172.976C1191.57 172.976 1190.86 172.801 1190.23 172.45C1189.61 172.092 1189.11 171.597 1188.75 170.966C1188.39 170.335 1188.21 169.618 1188.21 168.816ZM1203.64 172.906L1200.68 169.272V172.906H1199.04V164.749H1200.68V168.407L1203.64 164.749H1205.62L1202.25 168.793L1205.71 172.906H1203.64ZM1209.89 166.07V168.115H1212.63V169.412H1209.89V171.574H1212.98V172.906H1208.25V164.737H1212.98V166.07H1209.89ZM1218.78 164.749C1219.64 164.749 1220.39 164.916 1221.04 165.251C1221.69 165.586 1222.19 166.066 1222.54 166.689C1222.9 167.304 1223.08 168.021 1223.08 168.839C1223.08 169.657 1222.9 170.374 1222.54 170.99C1222.19 171.597 1221.69 172.069 1221.04 172.404C1220.39 172.739 1219.64 172.906 1218.78 172.906H1215.93V164.749H1218.78ZM1218.72 171.516C1219.58 171.516 1220.24 171.282 1220.71 170.814C1221.18 170.347 1221.41 169.689 1221.41 168.839C1221.41 167.99 1221.18 167.328 1220.71 166.853C1220.24 166.369 1219.58 166.128 1218.72 166.128H1217.57V171.516H1218.72Z" fill="#25213B"/>
<path d="M1119.19 145.111H1116.98V147.378H1115.44V145.111H1113.23V143.685H1115.44V141.418H1116.98V143.685H1119.19V145.111ZM1122.03 141.547V140.039H1124.84V148.559H1123.16V141.547H1122.03ZM1128.43 146.712C1129.18 146.089 1129.78 145.571 1130.22 145.158C1130.67 144.737 1131.04 144.301 1131.33 143.849C1131.63 143.397 1131.78 142.953 1131.78 142.517C1131.78 142.119 1131.68 141.808 1131.5 141.582C1131.31 141.356 1131.02 141.243 1130.63 141.243C1130.24 141.243 1129.94 141.375 1129.73 141.64C1129.52 141.897 1129.41 142.252 1129.4 142.704H1127.81C1127.85 141.769 1128.12 141.06 1128.64 140.577C1129.17 140.094 1129.84 139.852 1130.65 139.852C1131.54 139.852 1132.22 140.09 1132.7 140.565C1133.17 141.032 1133.41 141.652 1133.41 142.423C1133.41 143.031 1133.25 143.611 1132.92 144.164C1132.59 144.718 1132.22 145.201 1131.8 145.614C1131.38 146.019 1130.83 146.51 1130.15 147.086H1133.6V148.442H1127.83V147.226L1128.43 146.712ZM1135.9 142.131C1135.9 141.539 1136.08 141.075 1136.42 140.74C1136.77 140.405 1137.22 140.238 1137.76 140.238C1138.31 140.238 1138.75 140.405 1139.09 140.74C1139.45 141.075 1139.62 141.539 1139.62 142.131C1139.62 142.731 1139.45 143.198 1139.09 143.533C1138.75 143.868 1138.31 144.036 1137.76 144.036C1137.22 144.036 1136.77 143.868 1136.42 143.533C1136.08 143.198 1135.9 142.731 1135.9 142.131ZM1143.41 140.378L1138.81 148.559H1137.22L1141.81 140.378H1143.41ZM1137.75 141.219C1137.32 141.219 1137.11 141.523 1137.11 142.131C1137.11 142.746 1137.32 143.054 1137.75 143.054C1137.96 143.054 1138.12 142.98 1138.24 142.832C1138.36 142.676 1138.42 142.443 1138.42 142.131C1138.42 141.523 1138.19 141.219 1137.75 141.219ZM1141.03 146.794C1141.03 146.194 1141.21 145.73 1141.55 145.403C1141.9 145.068 1142.35 144.901 1142.89 144.901C1143.44 144.901 1143.88 145.068 1144.21 145.403C1144.56 145.73 1144.73 146.194 1144.73 146.794C1144.73 147.394 1144.56 147.861 1144.21 148.196C1143.88 148.531 1143.44 148.699 1142.89 148.699C1142.34 148.699 1141.89 148.531 1141.55 148.196C1141.21 147.861 1141.03 147.394 1141.03 146.794ZM1142.88 145.882C1142.44 145.882 1142.22 146.186 1142.22 146.794C1142.22 147.409 1142.44 147.717 1142.88 147.717C1143.32 147.717 1143.54 147.409 1143.54 146.794C1143.54 146.186 1143.32 145.882 1142.88 145.882Z" fill="#6C6C6C"/>
<path d="M1104.04 148.777L1096.49 139.183C1096.34 139.003 1096.15 138.902 1095.95 138.902C1095.75 138.902 1095.56 139.003 1095.42 139.183L1087.86 148.777C1087.75 148.911 1087.68 149.082 1087.65 149.268C1087.62 149.454 1087.64 149.647 1087.69 149.822C1087.75 149.998 1087.85 150.148 1087.97 150.253C1088.1 150.358 1088.24 150.415 1088.39 150.415H1103.51C1103.66 150.415 1103.8 150.358 1103.93 150.253C1104.05 150.148 1104.15 149.998 1104.21 149.822C1104.26 149.647 1104.28 149.454 1104.25 149.268C1104.22 149.082 1104.15 148.911 1104.04 148.777Z" fill="#16C35B"/>
<path d="M1324 152.092C1324 135.473 1337.47 122 1354.09 122C1370.71 122 1384.18 135.473 1384.18 152.092C1384.18 168.712 1370.71 182.184 1354.09 182.184C1337.47 182.184 1324 168.712 1324 152.092Z" fill="#001833"/>
<path d="M1360.11 148.686C1359.89 148.462 1359.58 148.336 1359.26 148.336C1358.94 148.336 1358.64 148.462 1358.41 148.686L1354.09 152.947L1349.83 148.686C1349.61 148.462 1349.3 148.336 1348.98 148.336C1348.66 148.336 1348.36 148.462 1348.13 148.686C1348.02 148.798 1347.93 148.931 1347.87 149.078C1347.81 149.224 1347.78 149.382 1347.78 149.541C1347.78 149.699 1347.81 149.857 1347.87 150.003C1347.93 150.15 1348.02 150.283 1348.13 150.395L1353.24 155.499C1353.35 155.612 1353.48 155.701 1353.63 155.762C1353.78 155.823 1353.93 155.855 1354.09 155.855C1354.25 155.855 1354.41 155.823 1354.56 155.762C1354.7 155.701 1354.83 155.612 1354.95 155.499L1360.11 150.395C1360.22 150.283 1360.31 150.15 1360.37 150.003C1360.44 149.857 1360.47 149.699 1360.47 149.541C1360.47 149.382 1360.44 149.224 1360.37 149.078C1360.31 148.931 1360.22 148.798 1360.11 148.686Z" fill="white"/>
<rect x="117" y="112.164" width="288.885" height="77.0361" rx="16.8516" fill="#F0D6FF"/>
<path d="M201.775 171.518C201.775 170.699 201.96 169.965 202.329 169.315C202.698 168.657 203.2 168.144 203.834 167.774C204.476 167.405 205.186 167.221 205.964 167.221C206.879 167.221 207.677 167.441 208.36 167.883C209.042 168.324 209.539 168.95 209.852 169.76H208.54C208.307 169.255 207.97 168.866 207.529 168.593C207.096 168.32 206.574 168.184 205.964 168.184C205.378 168.184 204.853 168.32 204.387 168.593C203.922 168.866 203.557 169.255 203.292 169.76C203.027 170.258 202.895 170.844 202.895 171.518C202.895 172.184 203.027 172.77 203.292 173.275C203.557 173.773 203.922 174.158 204.387 174.431C204.853 174.704 205.378 174.84 205.964 174.84C206.574 174.84 207.096 174.708 207.529 174.443C207.97 174.17 208.307 173.781 208.54 173.275H209.852C209.539 174.078 209.042 174.7 208.36 175.141C207.677 175.574 206.879 175.791 205.964 175.791C205.186 175.791 204.476 175.61 203.834 175.249C203.2 174.88 202.698 174.371 202.329 173.721C201.96 173.071 201.775 172.336 201.775 171.518ZM214.359 175.827C213.742 175.827 213.18 175.687 212.674 175.406C212.177 175.125 211.784 174.728 211.495 174.214C211.214 173.693 211.073 173.091 211.073 172.409C211.073 171.735 211.218 171.141 211.507 170.627C211.804 170.106 212.205 169.708 212.71 169.435C213.216 169.155 213.782 169.014 214.408 169.014C215.034 169.014 215.599 169.155 216.105 169.435C216.61 169.708 217.008 170.102 217.296 170.615C217.593 171.129 217.742 171.727 217.742 172.409C217.742 173.091 217.589 173.693 217.284 174.214C216.988 174.728 216.582 175.125 216.069 175.406C215.555 175.687 214.985 175.827 214.359 175.827ZM214.359 174.864C214.753 174.864 215.122 174.772 215.467 174.587C215.812 174.403 216.089 174.126 216.297 173.757C216.514 173.388 216.622 172.938 216.622 172.409C216.622 171.879 216.518 171.43 216.309 171.06C216.101 170.691 215.828 170.419 215.491 170.242C215.154 170.057 214.789 169.965 214.396 169.965C213.994 169.965 213.625 170.057 213.288 170.242C212.959 170.419 212.694 170.691 212.494 171.06C212.293 171.43 212.193 171.879 212.193 172.409C212.193 172.946 212.289 173.4 212.482 173.769C212.682 174.138 212.947 174.415 213.276 174.599C213.605 174.776 213.966 174.864 214.359 174.864ZM227.114 169.002C227.628 169.002 228.085 169.11 228.487 169.327C228.888 169.536 229.205 169.853 229.437 170.278C229.67 170.703 229.787 171.221 229.787 171.831V175.719H228.703V171.987C228.703 171.329 228.539 170.828 228.21 170.483C227.889 170.13 227.451 169.953 226.898 169.953C226.328 169.953 225.875 170.138 225.538 170.507C225.2 170.868 225.032 171.393 225.032 172.084V175.719H223.949V171.987C223.949 171.329 223.784 170.828 223.455 170.483C223.134 170.13 222.697 169.953 222.143 169.953C221.573 169.953 221.12 170.138 220.783 170.507C220.446 170.868 220.277 171.393 220.277 172.084V175.719H219.182V169.123H220.277V170.073C220.494 169.728 220.783 169.464 221.144 169.279C221.513 169.094 221.918 169.002 222.36 169.002C222.913 169.002 223.403 169.127 223.828 169.375C224.254 169.624 224.571 169.989 224.779 170.471C224.964 170.005 225.269 169.644 225.694 169.387C226.119 169.131 226.593 169.002 227.114 169.002ZM232.679 170.338C232.895 169.961 233.216 169.648 233.642 169.399C234.075 169.143 234.577 169.014 235.146 169.014C235.732 169.014 236.262 169.155 236.735 169.435C237.217 169.716 237.594 170.114 237.867 170.627C238.139 171.133 238.276 171.723 238.276 172.397C238.276 173.063 238.139 173.656 237.867 174.178C237.594 174.7 237.217 175.105 236.735 175.394C236.262 175.683 235.732 175.827 235.146 175.827C234.585 175.827 234.087 175.703 233.654 175.454C233.228 175.197 232.903 174.88 232.679 174.503V178.848H231.583V169.123H232.679V170.338ZM237.156 172.397C237.156 171.899 237.056 171.466 236.855 171.097C236.655 170.727 236.382 170.447 236.037 170.254C235.7 170.061 235.327 169.965 234.918 169.965C234.516 169.965 234.143 170.065 233.798 170.266C233.461 170.459 233.188 170.744 232.98 171.121C232.779 171.49 232.679 171.919 232.679 172.409C232.679 172.906 232.779 173.343 232.98 173.721C233.188 174.09 233.461 174.375 233.798 174.575C234.143 174.768 234.516 174.864 234.918 174.864C235.327 174.864 235.7 174.768 236.037 174.575C236.382 174.375 236.655 174.09 236.855 173.721C237.056 173.343 237.156 172.902 237.156 172.397ZM240.813 166.811V175.719H239.718V166.811H240.813ZM243.246 168.051C243.037 168.051 242.86 167.979 242.716 167.835C242.572 167.69 242.499 167.514 242.499 167.305C242.499 167.096 242.572 166.92 242.716 166.775C242.86 166.631 243.037 166.559 243.246 166.559C243.446 166.559 243.615 166.631 243.751 166.775C243.896 166.92 243.968 167.096 243.968 167.305C243.968 167.514 243.896 167.69 243.751 167.835C243.615 167.979 243.446 168.051 243.246 168.051ZM243.775 169.123V175.719H242.68V169.123H243.775ZM245.233 172.397C245.233 171.723 245.369 171.133 245.642 170.627C245.915 170.114 246.288 169.716 246.761 169.435C247.243 169.155 247.777 169.014 248.362 169.014C248.94 169.014 249.442 169.139 249.867 169.387C250.292 169.636 250.609 169.949 250.818 170.326V169.123H251.925V175.719H250.818V174.491C250.601 174.876 250.276 175.197 249.843 175.454C249.418 175.703 248.92 175.827 248.35 175.827C247.765 175.827 247.235 175.683 246.761 175.394C246.288 175.105 245.915 174.7 245.642 174.178C245.369 173.656 245.233 173.063 245.233 172.397ZM250.818 172.409C250.818 171.911 250.718 171.478 250.517 171.109C250.316 170.739 250.044 170.459 249.698 170.266C249.361 170.065 248.988 169.965 248.579 169.965C248.17 169.965 247.797 170.061 247.46 170.254C247.123 170.447 246.854 170.727 246.653 171.097C246.453 171.466 246.352 171.899 246.352 172.397C246.352 172.902 246.453 173.343 246.653 173.721C246.854 174.09 247.123 174.375 247.46 174.575C247.797 174.768 248.17 174.864 248.579 174.864C248.988 174.864 249.361 174.768 249.698 174.575C250.044 174.375 250.316 174.09 250.517 173.721C250.718 173.343 250.818 172.906 250.818 172.409ZM256.99 169.002C257.793 169.002 258.443 169.247 258.94 169.736C259.438 170.218 259.686 170.916 259.686 171.831V175.719H258.603V171.987C258.603 171.329 258.439 170.828 258.11 170.483C257.781 170.13 257.331 169.953 256.762 169.953C256.184 169.953 255.722 170.134 255.377 170.495C255.04 170.856 254.872 171.381 254.872 172.072V175.719H253.776V169.123H254.872V170.061C255.088 169.724 255.381 169.464 255.75 169.279C256.128 169.094 256.541 169.002 256.99 169.002ZM261.066 172.409C261.066 171.727 261.203 171.133 261.476 170.627C261.749 170.114 262.126 169.716 262.607 169.435C263.097 169.155 263.654 169.014 264.28 169.014C265.091 169.014 265.757 169.211 266.278 169.604C266.808 169.997 267.157 170.543 267.326 171.241H266.146C266.034 170.84 265.813 170.523 265.484 170.29C265.163 170.057 264.762 169.941 264.28 169.941C263.654 169.941 263.149 170.158 262.764 170.591C262.378 171.016 262.186 171.622 262.186 172.409C262.186 173.203 262.378 173.817 262.764 174.25C263.149 174.684 263.654 174.9 264.28 174.9C264.762 174.9 265.163 174.788 265.484 174.563C265.805 174.339 266.026 174.018 266.146 173.6H267.326C267.149 174.274 266.796 174.816 266.266 175.225C265.737 175.626 265.075 175.827 264.28 175.827C263.654 175.827 263.097 175.687 262.607 175.406C262.126 175.125 261.749 174.728 261.476 174.214C261.203 173.701 261.066 173.099 261.066 172.409ZM274.806 172.168C274.806 172.377 274.794 172.597 274.77 172.83H269.497C269.537 173.48 269.758 173.989 270.159 174.359C270.569 174.72 271.062 174.9 271.64 174.9C272.113 174.9 272.507 174.792 272.82 174.575C273.141 174.351 273.365 174.054 273.494 173.685H274.673C274.497 174.318 274.144 174.836 273.614 175.237C273.084 175.63 272.426 175.827 271.64 175.827C271.014 175.827 270.452 175.687 269.955 175.406C269.465 175.125 269.08 174.728 268.799 174.214C268.518 173.693 268.378 173.091 268.378 172.409C268.378 171.727 268.514 171.129 268.787 170.615C269.06 170.102 269.441 169.708 269.931 169.435C270.428 169.155 270.998 169.014 271.64 169.014C272.266 169.014 272.82 169.151 273.301 169.423C273.783 169.696 274.152 170.073 274.408 170.555C274.673 171.028 274.806 171.566 274.806 172.168ZM273.674 171.939C273.674 171.522 273.582 171.165 273.397 170.868C273.213 170.563 272.96 170.334 272.639 170.182C272.326 170.021 271.977 169.941 271.592 169.941C271.038 169.941 270.565 170.118 270.171 170.471C269.786 170.824 269.566 171.313 269.509 171.939H273.674ZM278.587 175.827C278.081 175.827 277.628 175.743 277.226 175.574C276.825 175.398 276.508 175.157 276.276 174.852C276.043 174.539 275.914 174.182 275.89 173.781H277.022C277.054 174.11 277.206 174.379 277.479 174.587C277.76 174.796 278.125 174.9 278.575 174.9C278.992 174.9 279.321 174.808 279.562 174.623C279.802 174.439 279.923 174.206 279.923 173.925C279.923 173.636 279.794 173.424 279.538 173.287C279.281 173.143 278.884 173.002 278.346 172.866C277.856 172.738 277.455 172.609 277.142 172.481C276.837 172.344 276.572 172.148 276.348 171.891C276.131 171.626 276.023 171.281 276.023 170.856C276.023 170.519 276.123 170.21 276.324 169.929C276.524 169.648 276.809 169.427 277.178 169.267C277.547 169.098 277.969 169.014 278.442 169.014C279.172 169.014 279.762 169.199 280.212 169.568C280.661 169.937 280.902 170.443 280.934 171.085H279.838C279.814 170.739 279.674 170.463 279.417 170.254C279.168 170.045 278.831 169.941 278.406 169.941C278.013 169.941 277.7 170.025 277.467 170.194C277.234 170.362 277.118 170.583 277.118 170.856C277.118 171.073 277.186 171.253 277.323 171.398C277.467 171.534 277.644 171.646 277.852 171.735C278.069 171.815 278.366 171.907 278.743 172.011C279.217 172.14 279.602 172.268 279.899 172.397C280.196 172.517 280.448 172.702 280.657 172.95C280.874 173.199 280.986 173.524 280.994 173.925C280.994 174.286 280.894 174.611 280.693 174.9C280.492 175.189 280.208 175.418 279.838 175.586C279.477 175.747 279.06 175.827 278.587 175.827ZM288.409 175.803C287.856 175.803 287.358 175.707 286.917 175.514C286.484 175.314 286.143 175.041 285.894 174.696C285.645 174.343 285.517 173.937 285.509 173.48H286.676C286.716 173.873 286.877 174.206 287.158 174.479C287.447 174.744 287.864 174.876 288.409 174.876C288.931 174.876 289.34 174.748 289.637 174.491C289.942 174.226 290.095 173.889 290.095 173.48C290.095 173.159 290.006 172.898 289.83 172.697C289.653 172.497 289.433 172.344 289.168 172.24C288.903 172.136 288.546 172.023 288.097 171.903C287.543 171.759 287.097 171.614 286.76 171.47C286.431 171.325 286.147 171.101 285.906 170.796C285.673 170.483 285.557 170.065 285.557 169.544C285.557 169.086 285.673 168.681 285.906 168.328C286.139 167.975 286.464 167.702 286.881 167.51C287.306 167.317 287.792 167.221 288.337 167.221C289.124 167.221 289.766 167.417 290.263 167.811C290.769 168.204 291.054 168.725 291.118 169.375H289.914C289.874 169.054 289.705 168.773 289.409 168.533C289.112 168.284 288.718 168.16 288.229 168.16C287.772 168.16 287.398 168.28 287.11 168.521C286.821 168.753 286.676 169.082 286.676 169.508C286.676 169.813 286.76 170.061 286.929 170.254C287.105 170.447 287.318 170.595 287.567 170.699C287.824 170.796 288.181 170.908 288.638 171.036C289.192 171.189 289.637 171.341 289.974 171.494C290.311 171.638 290.6 171.867 290.841 172.18C291.082 172.485 291.202 172.902 291.202 173.432C291.202 173.841 291.094 174.226 290.877 174.587C290.66 174.948 290.339 175.241 289.914 175.466C289.489 175.691 288.987 175.803 288.409 175.803ZM292.405 172.409C292.405 171.727 292.541 171.133 292.814 170.627C293.087 170.114 293.464 169.716 293.945 169.435C294.435 169.155 294.993 169.014 295.619 169.014C296.429 169.014 297.095 169.211 297.617 169.604C298.146 169.997 298.495 170.543 298.664 171.241H297.484C297.372 170.84 297.151 170.523 296.822 170.29C296.501 170.057 296.1 169.941 295.619 169.941C294.993 169.941 294.487 170.158 294.102 170.591C293.717 171.016 293.524 171.622 293.524 172.409C293.524 173.203 293.717 173.817 294.102 174.25C294.487 174.684 294.993 174.9 295.619 174.9C296.1 174.9 296.501 174.788 296.822 174.563C297.143 174.339 297.364 174.018 297.484 173.6H298.664C298.487 174.274 298.134 174.816 297.605 175.225C297.075 175.626 296.413 175.827 295.619 175.827C294.993 175.827 294.435 175.687 293.945 175.406C293.464 175.125 293.087 174.728 292.814 174.214C292.541 173.701 292.405 173.099 292.405 172.409ZM299.716 172.397C299.716 171.723 299.853 171.133 300.125 170.627C300.398 170.114 300.771 169.716 301.245 169.435C301.726 169.155 302.26 169.014 302.846 169.014C303.424 169.014 303.925 169.139 304.35 169.387C304.776 169.636 305.093 169.949 305.301 170.326V169.123H306.409V175.719H305.301V174.491C305.085 174.876 304.76 175.197 304.326 175.454C303.901 175.703 303.403 175.827 302.834 175.827C302.248 175.827 301.718 175.683 301.245 175.394C300.771 175.105 300.398 174.7 300.125 174.178C299.853 173.656 299.716 173.063 299.716 172.397ZM305.301 172.409C305.301 171.911 305.201 171.478 305 171.109C304.8 170.739 304.527 170.459 304.182 170.266C303.845 170.065 303.472 169.965 303.062 169.965C302.653 169.965 302.28 170.061 301.943 170.254C301.606 170.447 301.337 170.727 301.137 171.097C300.936 171.466 300.836 171.899 300.836 172.397C300.836 172.902 300.936 173.343 301.137 173.721C301.337 174.09 301.606 174.375 301.943 174.575C302.28 174.768 302.653 174.864 303.062 174.864C303.472 174.864 303.845 174.768 304.182 174.575C304.527 174.375 304.8 174.09 305 173.721C305.201 173.343 305.301 172.906 305.301 172.409ZM311.474 169.002C312.276 169.002 312.926 169.247 313.424 169.736C313.921 170.218 314.17 170.916 314.17 171.831V175.719H313.087V171.987C313.087 171.329 312.922 170.828 312.593 170.483C312.264 170.13 311.815 169.953 311.245 169.953C310.667 169.953 310.206 170.134 309.861 170.495C309.524 170.856 309.355 171.381 309.355 172.072V175.719H308.26V169.123H309.355V170.061C309.572 169.724 309.865 169.464 310.234 169.279C310.611 169.094 311.024 169.002 311.474 169.002ZM319.173 169.002C319.975 169.002 320.625 169.247 321.123 169.736C321.62 170.218 321.869 170.916 321.869 171.831V175.719H320.786V171.987C320.786 171.329 320.621 170.828 320.292 170.483C319.963 170.13 319.514 169.953 318.944 169.953C318.366 169.953 317.905 170.134 317.56 170.495C317.223 170.856 317.054 171.381 317.054 172.072V175.719H315.959V169.123H317.054V170.061C317.271 169.724 317.564 169.464 317.933 169.279C318.31 169.094 318.724 169.002 319.173 169.002ZM329.677 172.168C329.677 172.377 329.665 172.597 329.641 172.83H324.369C324.409 173.48 324.629 173.989 325.031 174.359C325.44 174.72 325.933 174.9 326.511 174.9C326.985 174.9 327.378 174.792 327.691 174.575C328.012 174.351 328.237 174.054 328.365 173.685H329.545C329.368 174.318 329.015 174.836 328.485 175.237C327.956 175.63 327.298 175.827 326.511 175.827C325.885 175.827 325.324 175.687 324.826 175.406C324.337 175.125 323.951 174.728 323.671 174.214C323.39 173.693 323.249 173.091 323.249 172.409C323.249 171.727 323.386 171.129 323.658 170.615C323.931 170.102 324.312 169.708 324.802 169.435C325.3 169.155 325.869 169.014 326.511 169.014C327.137 169.014 327.691 169.151 328.172 169.423C328.654 169.696 329.023 170.073 329.28 170.555C329.545 171.028 329.677 171.566 329.677 172.168ZM328.545 171.939C328.545 171.522 328.453 171.165 328.269 170.868C328.084 170.563 327.831 170.334 327.51 170.182C327.197 170.021 326.848 169.941 326.463 169.941C325.909 169.941 325.436 170.118 325.043 170.471C324.658 170.824 324.437 171.313 324.381 171.939H328.545ZM330.714 172.397C330.714 171.723 330.85 171.133 331.123 170.627C331.396 170.114 331.769 169.716 332.242 169.435C332.724 169.155 333.261 169.014 333.855 169.014C334.369 169.014 334.846 169.135 335.288 169.375C335.729 169.608 336.066 169.917 336.299 170.302V166.811H337.406V175.719H336.299V174.479C336.082 174.872 335.761 175.197 335.336 175.454C334.91 175.703 334.413 175.827 333.843 175.827C333.257 175.827 332.724 175.683 332.242 175.394C331.769 175.105 331.396 174.7 331.123 174.178C330.85 173.656 330.714 173.063 330.714 172.397ZM336.299 172.409C336.299 171.911 336.198 171.478 335.998 171.109C335.797 170.739 335.524 170.459 335.179 170.266C334.842 170.065 334.469 169.965 334.06 169.965C333.651 169.965 333.277 170.061 332.94 170.254C332.603 170.447 332.334 170.727 332.134 171.097C331.933 171.466 331.833 171.899 331.833 172.397C331.833 172.902 331.933 173.343 332.134 173.721C332.334 174.09 332.603 174.375 332.94 174.575C333.277 174.768 333.651 174.864 334.06 174.864C334.469 174.864 334.842 174.768 335.179 174.575C335.524 174.375 335.797 174.09 335.998 173.721C336.198 173.343 336.299 172.906 336.299 172.409Z" fill="#101010"/>
<path d="M208.843 133.598H205.755L200.512 137.024V140.061L205.539 136.778H205.662V154.607H208.843V133.598ZM215.234 154.607H218.547L227.688 136.408V133.598H213.798V136.316H224.405V136.47L215.234 154.607ZM237.908 154.895C242.135 154.895 245.151 151.909 245.14 147.816C245.151 143.754 242.319 140.799 238.493 140.799C236.933 140.799 235.487 141.394 234.666 142.194H234.543L235.21 136.316H244.125V133.598H232.574L231.394 144.185L234.297 144.615C235.087 143.908 236.503 143.425 237.775 143.425C240.268 143.446 242.073 145.313 242.073 147.878C242.073 150.401 240.319 152.227 237.908 152.227C235.877 152.227 234.266 150.935 234.102 149.129H231.024C231.148 152.474 234.051 154.895 237.908 154.895ZM256.222 154.895C260.613 154.936 263.527 151.776 263.516 147.744C263.527 143.723 260.603 140.84 256.961 140.84C254.745 140.84 252.827 141.907 251.75 143.682H251.596C251.606 138.912 253.412 136.08 256.489 136.08C258.51 136.08 259.782 137.311 260.213 139.055H263.342C262.86 135.731 260.244 133.31 256.489 133.31C251.606 133.31 248.559 137.506 248.559 144.81C248.549 152.545 252.488 154.864 256.222 154.895ZM256.212 152.227C253.771 152.227 251.986 150.176 251.986 147.816C251.996 145.467 253.863 143.415 256.284 143.415C258.685 143.415 260.449 145.354 260.439 147.785C260.449 150.268 258.613 152.227 256.212 152.227Z" fill="#101010"/>
<rect x="126.63" y="120.59" width="60.1844" height="60.1844" rx="16.8516" fill="#622E80"/>
<g clip-path="url(#clip3_1316_31486)">
<path d="M156.727 137.51C159.39 137.51 162.088 137.599 164.751 137.773C165.9 137.858 167.096 138.443 168.033 139.38C168.97 140.317 169.556 141.513 169.641 142.662C169.988 147.984 169.988 153.386 169.641 158.707C169.556 159.856 168.97 161.052 168.033 161.989C167.096 162.926 165.9 163.511 164.751 163.596C162.088 163.77 159.39 163.859 156.727 163.859C154.064 163.859 151.367 163.77 148.703 163.596C147.554 163.511 146.358 162.926 145.421 161.989C144.484 161.052 143.898 159.856 143.814 158.707C143.466 153.386 143.466 147.984 143.814 142.662C143.898 141.513 144.484 140.317 145.421 139.38C146.358 138.443 147.554 137.858 148.703 137.773C151.367 137.595 154.064 137.51 156.727 137.51ZM156.727 136.238C154.021 136.238 151.32 136.327 148.614 136.501C145.574 136.722 142.762 139.529 142.541 142.573C142.189 147.979 142.189 153.386 142.541 158.792C142.762 161.832 145.569 164.643 148.614 164.864C151.32 165.038 154.021 165.127 156.727 165.127C159.433 165.127 162.134 165.038 164.84 164.864C167.881 164.643 170.692 161.836 170.913 158.792C171.265 153.386 171.265 147.979 170.913 142.573C170.692 139.533 167.885 136.722 164.84 136.501C162.134 136.323 159.433 136.238 156.727 136.238Z" fill="white"/>
<path d="M149.916 158.611C149.564 158.611 149.28 158.327 149.28 157.975V145.411C149.28 145.059 149.564 144.775 149.916 144.775C150.268 144.775 150.553 145.059 150.553 145.411V157.975C150.553 158.327 150.268 158.611 149.916 158.611Z" fill="white"/>
<path d="M156.727 158.609C156.375 158.609 156.091 158.325 156.091 157.973V151.681C156.091 151.329 156.375 151.045 156.727 151.045C157.079 151.045 157.363 151.329 157.363 151.681V157.973C157.363 158.325 157.079 158.609 156.727 158.609Z" fill="white"/>
<path d="M163.538 158.609C163.186 158.609 162.902 158.325 162.902 157.973V148.738C162.902 148.386 163.186 148.102 163.538 148.102C163.89 148.102 164.174 148.386 164.174 148.738V157.973C164.174 158.325 163.89 158.609 163.538 158.609Z" fill="white"/>
</g>
<g opacity="0.3">
<circle cx="379.404" cy="125.405" r="1.20369" fill="#101010"/>
<circle cx="384.218" cy="125.405" r="1.20369" fill="#101010"/>
<circle cx="389.034" cy="125.405" r="1.20369" fill="#101010"/>
</g>
<rect x="420" y="112" width="490" height="77" rx="16.8516" fill="#FBF2E4"/>
<rect x="434.189" y="120.998" width="60" height="60" rx="16.8516" fill="#FFAE18"/>
<g clip-path="url(#clip4_1316_31486)">
<path d="M464.188 165C461.66 165 459.129 164.914 456.62 164.747H456.616C455.108 164.633 453.628 163.895 452.443 162.668C451.258 161.44 450.545 159.903 450.435 158.341V158.337C450.108 153.135 450.108 147.862 450.435 142.66V142.655C450.545 141.094 451.258 139.561 452.443 138.333C453.628 137.106 455.112 136.368 456.616 136.254H456.62C461.645 135.915 466.736 135.915 471.76 136.254H471.764C471.811 136.258 471.859 136.262 471.906 136.266C472.229 136.303 472.465 136.6 472.433 136.939C472.398 137.273 472.111 137.518 471.784 137.485C471.748 137.481 471.713 137.477 471.677 137.477C466.708 137.143 461.668 137.143 456.695 137.477C454.167 137.669 451.789 140.127 451.608 142.745C451.285 147.891 451.285 153.11 451.608 158.26C451.793 160.878 454.167 163.336 456.695 163.528C461.664 163.862 466.704 163.862 471.677 163.528C474.205 163.336 476.58 160.878 476.765 158.26C477.088 153.114 477.088 147.895 476.765 142.745C476.761 142.708 476.761 142.672 476.757 142.635C476.725 142.301 476.958 141.999 477.284 141.962C477.607 141.93 477.899 142.17 477.934 142.509C477.938 142.558 477.942 142.607 477.946 142.655V142.66C478.273 147.862 478.273 153.135 477.946 158.337V158.341C477.836 159.903 477.123 161.436 475.938 162.668C474.753 163.895 473.268 164.633 471.76 164.747H471.756C469.248 164.914 466.716 165 464.188 165Z" fill="white"/>
<path d="M475.52 138.044C475.906 138.044 476.217 138.37 476.217 138.765C476.217 139.165 475.902 139.487 475.52 139.487C475.134 139.487 474.819 139.161 474.819 138.765C474.819 138.37 475.134 138.044 475.52 138.044ZM475.52 136.82C474.481 136.82 473.638 137.693 473.638 138.765C473.638 139.838 474.481 140.71 475.52 140.71C476.56 140.71 477.398 139.838 477.398 138.765C477.398 137.693 476.556 136.82 475.52 136.82Z" fill="white"/>
<path d="M456.691 155.463C456.541 155.463 456.388 155.402 456.274 155.284C456.041 155.043 456.041 154.656 456.274 154.419L461.42 149.09C461.53 148.976 461.68 148.91 461.837 148.91C461.995 148.91 462.145 148.976 462.255 149.09L465.133 152.07L471.272 145.714C471.504 145.473 471.878 145.473 472.106 145.714C472.339 145.954 472.339 146.342 472.106 146.578L465.55 153.367C465.44 153.481 465.291 153.546 465.133 153.546C464.976 153.546 464.826 153.481 464.716 153.367L461.837 150.386L457.108 155.284C456.99 155.406 456.841 155.463 456.691 155.463Z" fill="white"/>
</g>
<path opacity="0.2" fill-rule="evenodd" clip-rule="evenodd" d="M541.654 145.785H561.841V181.058H541.654V145.785Z" fill="#FFAE18"/>
<path fill-rule="evenodd" clip-rule="evenodd" d="M569.412 128.652H589.599V181.058H569.412V128.652Z" fill="#FFAE18"/>
<path opacity="0.2" fill-rule="evenodd" clip-rule="evenodd" d="M598.43 136.715H618.617V181.058H598.43V136.715Z" fill="#FFAE18"/>
<path opacity="0.2" fill-rule="evenodd" clip-rule="evenodd" d="M655.205 145.785H675.392V181.058H655.205V145.785Z" fill="#FFAE18"/>
<path opacity="0.2" fill-rule="evenodd" clip-rule="evenodd" d="M682.962 150.824H703.149V181.058H682.962V150.824Z" fill="#FFAE18"/>
<path opacity="0.2" fill-rule="evenodd" clip-rule="evenodd" d="M711.98 136.715H732.167V181.058H711.98V136.715Z" fill="#FFAE18"/>
<path opacity="0.2" fill-rule="evenodd" clip-rule="evenodd" d="M739.737 153.848H759.924V181.058H739.737V153.848Z" fill="#FFAE18"/>
<path opacity="0.2" fill-rule="evenodd" clip-rule="evenodd" d="M626.187 153.848H646.374V181.058H626.187V153.848Z" fill="#FFAE18"/>
<path opacity="0.2" fill-rule="evenodd" clip-rule="evenodd" d="M768.755 145.785H788.942V181.058H768.755V145.785Z" fill="#FFAE18"/>
<path fill-rule="evenodd" clip-rule="evenodd" d="M796.512 128.652H816.699V181.058H796.512V128.652Z" fill="#FFAE18"/>
<path opacity="0.2" fill-rule="evenodd" clip-rule="evenodd" d="M825.531 136.715H845.718V181.058H825.531V136.715Z" fill="#FFAE18"/>
<path opacity="0.2" fill-rule="evenodd" clip-rule="evenodd" d="M881.044 145.785H901.231V181.058H881.044V145.785Z" fill="#FFAE18"/>
<path opacity="0.2" fill-rule="evenodd" clip-rule="evenodd" d="M853.287 153.848H873.474V181.058H853.287V153.848Z" fill="#FFAE18"/>
<g opacity="0.3">
<ellipse cx="889.276" cy="122.997" rx="0.698393" ry="1.20369" fill="#101010"/>
<ellipse cx="892.07" cy="122.997" rx="0.698393" ry="1.20369" fill="#101010"/>
<ellipse cx="894.864" cy="122.997" rx="0.698393" ry="1.20369" fill="#101010"/>
</g>
<rect x="926" y="113" width="373" height="75.9634" rx="13.6345" fill="#16C35B" fill-opacity="0.3"/>
<rect x="940.608" y="126.635" width="48.6945" height="48.6945" rx="13.6345" fill="#16C35B"/>
<g clip-path="url(#clip5_1316_31486)">
<path d="M964.954 162.668C962.844 162.668 960.731 162.599 958.637 162.465H958.634C957.375 162.373 956.139 161.778 955.149 160.789C954.16 159.799 953.565 158.56 953.473 157.302V157.298C953.2 153.105 953.2 148.856 953.473 144.662V144.659C953.565 143.4 954.16 142.165 955.149 141.176C956.139 140.186 957.378 139.592 958.634 139.499H958.637C962.831 139.227 967.081 139.227 971.275 139.499H971.278C971.318 139.503 971.357 139.506 971.397 139.509C971.666 139.539 971.863 139.779 971.837 140.052C971.807 140.321 971.567 140.518 971.295 140.492C971.265 140.489 971.236 140.485 971.206 140.485C967.058 140.216 962.851 140.216 958.699 140.485C956.589 140.64 954.604 142.622 954.453 144.731C954.183 148.879 954.183 153.085 954.453 157.236C954.607 159.346 956.589 161.327 958.699 161.482C962.847 161.751 967.055 161.751 971.206 161.482C973.316 161.327 975.298 159.346 975.453 157.236C975.722 153.089 975.722 148.882 975.453 144.731C975.449 144.702 975.449 144.672 975.446 144.643C975.42 144.373 975.614 144.13 975.886 144.1C976.156 144.074 976.399 144.268 976.429 144.541C976.432 144.58 976.435 144.62 976.439 144.659V144.662C976.711 148.856 976.711 153.105 976.439 157.298V157.302C976.347 158.56 975.752 159.796 974.762 160.789C973.773 161.778 972.534 162.373 971.275 162.465H971.272C969.178 162.599 967.064 162.668 964.954 162.668Z" fill="white"/>
<path d="M974.414 140.943C974.736 140.943 974.996 141.206 974.996 141.525C974.996 141.847 974.733 142.106 974.414 142.106C974.092 142.106 973.829 141.843 973.829 141.525C973.829 141.206 974.092 140.943 974.414 140.943ZM974.414 139.957C973.546 139.957 972.843 140.66 972.843 141.525C972.843 142.389 973.546 143.092 974.414 143.092C975.281 143.092 975.982 142.389 975.982 141.525C975.982 140.66 975.278 139.957 974.414 139.957Z" fill="white"/>
<path d="M958.696 154.982C958.571 154.982 958.443 154.932 958.348 154.837C958.154 154.643 958.154 154.331 958.348 154.14L962.644 149.845C962.736 149.753 962.86 149.7 962.992 149.7C963.123 149.7 963.248 149.753 963.34 149.845L965.743 152.247L970.867 147.124C971.061 146.93 971.373 146.93 971.564 147.124C971.758 147.318 971.758 147.63 971.564 147.821L966.091 153.292C965.999 153.384 965.875 153.437 965.743 153.437C965.612 153.437 965.487 153.384 965.395 153.292L962.992 150.89L959.044 154.837C958.946 154.936 958.821 154.982 958.696 154.982Z" fill="white"/>
</g>
<path d="M1021.31 139.583V136.568H1026.94V153.607H1023.58V139.583H1021.31ZM1032.66 149.914C1034.16 148.668 1035.35 147.632 1036.24 146.806C1037.13 145.964 1037.87 145.092 1038.46 144.188C1039.05 143.284 1039.35 142.396 1039.35 141.523C1039.35 140.729 1039.16 140.105 1038.79 139.654C1038.41 139.202 1037.84 138.976 1037.06 138.976C1036.28 138.976 1035.68 139.241 1035.26 139.77C1034.84 140.285 1034.62 140.994 1034.6 141.897H1031.42C1031.49 140.027 1032.04 138.61 1033.08 137.643C1034.14 136.677 1035.48 136.194 1037.1 136.194C1038.88 136.194 1040.24 136.67 1041.19 137.62C1042.15 138.555 1042.62 139.794 1042.62 141.336C1042.62 142.552 1042.29 143.713 1041.64 144.819C1040.98 145.925 1040.24 146.891 1039.4 147.717C1038.55 148.528 1037.46 149.509 1036.1 150.662H1042.99V153.374H1031.45V150.943L1032.66 149.914ZM1057.36 139.046L1051.15 153.607H1047.83L1054.09 139.42H1046.1V136.615H1057.36V139.046ZM1069.62 140.822C1069.46 140.168 1069.19 139.677 1068.8 139.35C1068.43 139.022 1067.88 138.859 1067.16 138.859C1066.09 138.859 1065.29 139.295 1064.78 140.168C1064.28 141.025 1064.02 142.427 1064.01 144.375C1064.38 143.752 1064.93 143.269 1065.65 142.926C1066.36 142.567 1067.14 142.388 1067.98 142.388C1069 142.388 1069.89 142.606 1070.67 143.043C1071.45 143.479 1072.06 144.118 1072.49 144.959C1072.93 145.785 1073.15 146.782 1073.15 147.951C1073.15 149.057 1072.92 150.047 1072.47 150.919C1072.03 151.777 1071.39 152.447 1070.53 152.93C1069.67 153.413 1068.65 153.654 1067.47 153.654C1065.85 153.654 1064.57 153.296 1063.63 152.579C1062.72 151.862 1062.07 150.865 1061.69 149.587C1061.34 148.294 1061.16 146.704 1061.16 144.819C1061.16 141.967 1061.65 139.817 1062.63 138.368C1063.61 136.903 1065.16 136.171 1067.28 136.171C1068.92 136.171 1070.19 136.615 1071.09 137.503C1071.99 138.391 1072.52 139.498 1072.66 140.822H1069.62ZM1067.23 145.076C1066.41 145.076 1065.72 145.318 1065.15 145.801C1064.59 146.284 1064.31 146.985 1064.31 147.904C1064.31 148.824 1064.57 149.548 1065.08 150.078C1065.61 150.608 1066.35 150.873 1067.3 150.873C1068.15 150.873 1068.81 150.616 1069.29 150.101C1069.79 149.587 1070.04 148.894 1070.04 148.021C1070.04 147.117 1069.8 146.401 1069.31 145.871C1068.85 145.341 1068.15 145.076 1067.23 145.076Z" fill="#101010"/>
<path d="M1028.25 172.906H1026.61L1022.91 167.308V172.906H1021.27V164.737H1022.91L1026.61 170.347V164.737H1028.25V172.906ZM1032.96 166.07V168.115H1035.71V169.412H1032.96V171.574H1036.06V172.906H1031.33V164.737H1036.06V166.07H1032.96ZM1049.91 164.749L1047.63 172.906H1045.71L1044.17 167.098L1042.57 172.906L1040.66 172.918L1038.46 164.749H1040.21L1041.65 171.083L1043.31 164.749H1045.13L1046.7 171.048L1048.15 164.749H1049.91ZM1056.29 168.816C1056.29 168.013 1056.47 167.297 1056.83 166.666C1057.19 166.027 1057.69 165.532 1058.31 165.181C1058.94 164.823 1059.65 164.644 1060.43 164.644C1061.34 164.644 1062.14 164.877 1062.82 165.345C1063.51 165.812 1063.99 166.459 1064.26 167.285H1062.38C1062.19 166.895 1061.93 166.603 1061.58 166.408C1061.25 166.214 1060.86 166.116 1060.42 166.116C1059.94 166.116 1059.52 166.229 1059.14 166.455C1058.78 166.673 1058.49 166.985 1058.28 167.39C1058.07 167.795 1057.97 168.271 1057.97 168.816C1057.97 169.353 1058.07 169.829 1058.28 170.242C1058.49 170.647 1058.78 170.962 1059.14 171.188C1059.52 171.406 1059.94 171.516 1060.42 171.516C1060.86 171.516 1061.25 171.418 1061.58 171.223C1061.93 171.021 1062.19 170.725 1062.38 170.335H1064.26C1063.99 171.169 1063.51 171.819 1062.82 172.287C1062.15 172.747 1061.35 172.976 1060.43 172.976C1059.65 172.976 1058.94 172.801 1058.31 172.45C1057.69 172.092 1057.19 171.597 1056.83 170.966C1056.47 170.335 1056.29 169.618 1056.29 168.816ZM1070.91 172.988C1070.14 172.988 1069.44 172.809 1068.8 172.45C1068.16 172.092 1067.66 171.597 1067.28 170.966C1066.91 170.327 1066.72 169.607 1066.72 168.804C1066.72 168.01 1066.91 167.297 1067.28 166.666C1067.66 166.027 1068.16 165.528 1068.8 165.17C1069.44 164.811 1070.14 164.632 1070.91 164.632C1071.68 164.632 1072.38 164.811 1073.01 165.17C1073.65 165.528 1074.15 166.027 1074.52 166.666C1074.89 167.297 1075.08 168.01 1075.08 168.804C1075.08 169.607 1074.89 170.327 1074.52 170.966C1074.15 171.597 1073.65 172.092 1073.01 172.45C1072.37 172.809 1071.67 172.988 1070.91 172.988ZM1070.91 171.527C1071.4 171.527 1071.83 171.418 1072.2 171.2C1072.58 170.974 1072.87 170.655 1073.08 170.242C1073.29 169.829 1073.39 169.35 1073.39 168.804C1073.39 168.259 1073.29 167.784 1073.08 167.378C1072.87 166.966 1072.58 166.65 1072.2 166.432C1071.83 166.214 1071.4 166.105 1070.91 166.105C1070.41 166.105 1069.98 166.214 1069.6 166.432C1069.22 166.65 1068.93 166.966 1068.72 167.378C1068.51 167.784 1068.4 168.259 1068.4 168.804C1068.4 169.35 1068.51 169.829 1068.72 170.242C1068.93 170.655 1069.22 170.974 1069.6 171.2C1069.98 171.418 1070.41 171.527 1070.91 171.527ZM1086.65 164.749V172.906H1085.01V167.6L1082.83 172.906H1081.59L1079.39 167.6V172.906H1077.76V164.749H1079.61L1082.21 170.814L1084.8 164.749H1086.65ZM1095.68 167.273C1095.68 167.71 1095.57 168.119 1095.36 168.5C1095.16 168.882 1094.83 169.19 1094.39 169.424C1093.95 169.657 1093.4 169.774 1092.73 169.774H1091.36V172.906H1089.73V164.749H1092.73C1093.36 164.749 1093.9 164.858 1094.34 165.076C1094.79 165.294 1095.12 165.594 1095.34 165.976C1095.56 166.358 1095.68 166.79 1095.68 167.273ZM1092.66 168.454C1093.11 168.454 1093.45 168.352 1093.67 168.15C1093.88 167.939 1093.99 167.647 1093.99 167.273C1093.99 166.479 1093.55 166.081 1092.66 166.081H1091.36V168.454H1092.66ZM1099.93 171.609H1102.62V172.906H1098.3V164.749H1099.93V171.609ZM1106.76 164.749V172.906H1105.12V164.749H1106.76ZM1114.84 171.352H1111.59L1111.05 172.906H1109.33L1112.27 164.737H1114.17L1117.11 172.906H1115.38L1114.84 171.352ZM1114.39 170.043L1113.21 166.631L1112.03 170.043H1114.39ZM1126.64 172.906H1125L1121.3 167.308V172.906H1119.66V164.737H1121.3L1125 170.347V164.737H1126.64V172.906ZM1129.32 168.816C1129.32 168.013 1129.5 167.297 1129.86 166.666C1130.22 166.027 1130.72 165.532 1131.34 165.181C1131.97 164.823 1132.68 164.644 1133.46 164.644C1134.37 164.644 1135.17 164.877 1135.85 165.345C1136.54 165.812 1137.02 166.459 1137.29 167.285H1135.41C1135.22 166.895 1134.96 166.603 1134.61 166.408C1134.28 166.214 1133.89 166.116 1133.45 166.116C1132.97 166.116 1132.55 166.229 1132.17 166.455C1131.81 166.673 1131.52 166.985 1131.31 167.39C1131.1 167.795 1131 168.271 1131 168.816C1131 169.353 1131.1 169.829 1131.31 170.242C1131.52 170.647 1131.81 170.962 1132.17 171.188C1132.55 171.406 1132.97 171.516 1133.45 171.516C1133.89 171.516 1134.28 171.418 1134.61 171.223C1134.96 171.021 1135.22 170.725 1135.41 170.335H1137.29C1137.02 171.169 1136.54 171.819 1135.85 172.287C1135.18 172.747 1134.38 172.976 1133.46 172.976C1132.68 172.976 1131.97 172.801 1131.34 172.45C1130.72 172.092 1130.22 171.597 1129.86 170.966C1129.5 170.335 1129.32 169.618 1129.32 168.816ZM1141.79 166.07V168.115H1144.53V169.412H1141.79V171.574H1144.88V172.906H1140.15V164.737H1144.88V166.07H1141.79ZM1150.65 172.988C1150.08 172.988 1149.56 172.891 1149.1 172.696C1148.65 172.501 1148.29 172.221 1148.03 171.854C1147.76 171.488 1147.63 171.056 1147.62 170.557H1149.37C1149.4 170.892 1149.51 171.157 1149.72 171.352C1149.94 171.547 1150.24 171.644 1150.61 171.644C1150.99 171.644 1151.29 171.554 1151.51 171.375C1151.73 171.188 1151.84 170.947 1151.84 170.651C1151.84 170.409 1151.76 170.211 1151.62 170.055C1151.47 169.899 1151.28 169.778 1151.06 169.692C1150.84 169.599 1150.53 169.498 1150.14 169.389C1149.61 169.233 1149.18 169.081 1148.85 168.933C1148.52 168.777 1148.24 168.547 1147.99 168.243C1147.76 167.932 1147.64 167.519 1147.64 167.004C1147.64 166.521 1147.76 166.101 1148.01 165.742C1148.25 165.384 1148.59 165.111 1149.02 164.924C1149.46 164.729 1149.96 164.632 1150.52 164.632C1151.36 164.632 1152.04 164.839 1152.56 165.251C1153.09 165.657 1153.39 166.225 1153.44 166.958H1151.64C1151.62 166.677 1151.5 166.447 1151.28 166.268C1151.06 166.081 1150.77 165.988 1150.4 165.988C1150.08 165.988 1149.82 166.07 1149.63 166.233C1149.44 166.397 1149.35 166.634 1149.35 166.946C1149.35 167.164 1149.42 167.347 1149.56 167.495C1149.71 167.636 1149.89 167.752 1150.1 167.846C1150.32 167.932 1150.62 168.033 1151.01 168.15C1151.54 168.306 1151.97 168.461 1152.31 168.617C1152.64 168.773 1152.93 169.007 1153.17 169.318C1153.41 169.63 1153.53 170.039 1153.53 170.546C1153.53 170.982 1153.42 171.387 1153.19 171.761C1152.97 172.135 1152.64 172.435 1152.2 172.661C1151.76 172.879 1151.25 172.988 1150.65 172.988ZM1160.26 168.816C1160.26 168.013 1160.44 167.297 1160.8 166.666C1161.16 166.027 1161.66 165.532 1162.28 165.181C1162.91 164.823 1163.62 164.644 1164.4 164.644C1165.31 164.644 1166.11 164.877 1166.79 165.345C1167.48 165.812 1167.96 166.459 1168.23 167.285H1166.35C1166.16 166.895 1165.9 166.603 1165.55 166.408C1165.22 166.214 1164.83 166.116 1164.39 166.116C1163.91 166.116 1163.49 166.229 1163.11 166.455C1162.75 166.673 1162.46 166.985 1162.25 167.39C1162.04 167.795 1161.94 168.271 1161.94 168.816C1161.94 169.353 1162.04 169.829 1162.25 170.242C1162.46 170.647 1162.75 170.962 1163.11 171.188C1163.49 171.406 1163.91 171.516 1164.39 171.516C1164.83 171.516 1165.22 171.418 1165.55 171.223C1165.9 171.021 1166.16 170.725 1166.35 170.335H1168.23C1167.96 171.169 1167.48 171.819 1166.79 172.287C1166.12 172.747 1165.32 172.976 1164.4 172.976C1163.62 172.976 1162.91 172.801 1162.28 172.45C1161.66 172.092 1161.16 171.597 1160.8 170.966C1160.44 170.335 1160.26 169.618 1160.26 168.816ZM1177.86 164.749V172.906H1176.22V169.435H1172.73V172.906H1171.09V164.749H1172.73V168.103H1176.22V164.749H1177.86ZM1182.56 166.07V168.115H1185.31V169.412H1182.56V171.574H1185.66V172.906H1180.93V164.737H1185.66V166.07H1182.56ZM1188.21 168.816C1188.21 168.013 1188.39 167.297 1188.75 166.666C1189.11 166.027 1189.61 165.532 1190.23 165.181C1190.86 164.823 1191.57 164.644 1192.35 164.644C1193.26 164.644 1194.06 164.877 1194.74 165.345C1195.43 165.812 1195.91 166.459 1196.18 167.285H1194.3C1194.11 166.895 1193.85 166.603 1193.5 166.408C1193.17 166.214 1192.78 166.116 1192.34 166.116C1191.86 166.116 1191.44 166.229 1191.06 166.455C1190.7 166.673 1190.41 166.985 1190.2 167.39C1189.99 167.795 1189.89 168.271 1189.89 168.816C1189.89 169.353 1189.99 169.829 1190.2 170.242C1190.41 170.647 1190.7 170.962 1191.06 171.188C1191.44 171.406 1191.86 171.516 1192.34 171.516C1192.78 171.516 1193.17 171.418 1193.5 171.223C1193.85 171.021 1194.11 170.725 1194.3 170.335H1196.18C1195.91 171.169 1195.43 171.819 1194.74 172.287C1194.07 172.747 1193.27 172.976 1192.35 172.976C1191.57 172.976 1190.86 172.801 1190.23 172.45C1189.61 172.092 1189.11 171.597 1188.75 170.966C1188.39 170.335 1188.21 169.618 1188.21 168.816ZM1203.64 172.906L1200.68 169.272V172.906H1199.04V164.749H1200.68V168.407L1203.64 164.749H1205.62L1202.25 168.793L1205.71 172.906H1203.64ZM1209.89 166.07V168.115H1212.63V169.412H1209.89V171.574H1212.98V172.906H1208.25V164.737H1212.98V166.07H1209.89ZM1218.78 164.749C1219.64 164.749 1220.39 164.916 1221.04 165.251C1221.69 165.586 1222.19 166.066 1222.54 166.689C1222.9 167.304 1223.08 168.021 1223.08 168.839C1223.08 169.657 1222.9 170.374 1222.54 170.99C1222.19 171.597 1221.69 172.069 1221.04 172.404C1220.39 172.739 1219.64 172.906 1218.78 172.906H1215.93V164.749H1218.78ZM1218.72 171.516C1219.58 171.516 1220.24 171.282 1220.71 170.814C1221.18 170.347 1221.41 169.689 1221.41 168.839C1221.41 167.99 1221.18 167.328 1220.71 166.853C1220.24 166.369 1219.58 166.128 1218.72 166.128H1217.57V171.516H1218.72Z" fill="#25213B"/>
<path d="M1119.19 145.111H1116.98V147.378H1115.44V145.111H1113.23V143.685H1115.44V141.418H1116.98V143.685H1119.19V145.111ZM1122.03 141.547V140.039H1124.84V148.559H1123.16V141.547H1122.03ZM1128.43 146.712C1129.18 146.089 1129.78 145.571 1130.22 145.158C1130.67 144.737 1131.04 144.301 1131.33 143.849C1131.63 143.397 1131.78 142.953 1131.78 142.517C1131.78 142.119 1131.68 141.808 1131.5 141.582C1131.31 141.356 1131.02 141.243 1130.63 141.243C1130.24 141.243 1129.94 141.375 1129.73 141.64C1129.52 141.897 1129.41 142.252 1129.4 142.704H1127.81C1127.85 141.769 1128.12 141.06 1128.64 140.577C1129.17 140.094 1129.84 139.852 1130.65 139.852C1131.54 139.852 1132.22 140.09 1132.7 140.565C1133.17 141.032 1133.41 141.652 1133.41 142.423C1133.41 143.031 1133.25 143.611 1132.92 144.164C1132.59 144.718 1132.22 145.201 1131.8 145.614C1131.38 146.019 1130.83 146.51 1130.15 147.086H1133.6V148.442H1127.83V147.226L1128.43 146.712ZM1135.9 142.131C1135.9 141.539 1136.08 141.075 1136.42 140.74C1136.77 140.405 1137.22 140.238 1137.76 140.238C1138.31 140.238 1138.75 140.405 1139.09 140.74C1139.45 141.075 1139.62 141.539 1139.62 142.131C1139.62 142.731 1139.45 143.198 1139.09 143.533C1138.75 143.868 1138.31 144.036 1137.76 144.036C1137.22 144.036 1136.77 143.868 1136.42 143.533C1136.08 143.198 1135.9 142.731 1135.9 142.131ZM1143.41 140.378L1138.81 148.559H1137.22L1141.81 140.378H1143.41ZM1137.75 141.219C1137.32 141.219 1137.11 141.523 1137.11 142.131C1137.11 142.746 1137.32 143.054 1137.75 143.054C1137.96 143.054 1138.12 142.98 1138.24 142.832C1138.36 142.676 1138.42 142.443 1138.42 142.131C1138.42 141.523 1138.19 141.219 1137.75 141.219ZM1141.03 146.794C1141.03 146.194 1141.21 145.73 1141.55 145.403C1141.9 145.068 1142.35 144.901 1142.89 144.901C1143.44 144.901 1143.88 145.068 1144.21 145.403C1144.56 145.73 1144.73 146.194 1144.73 146.794C1144.73 147.394 1144.56 147.861 1144.21 148.196C1143.88 148.531 1143.44 148.699 1142.89 148.699C1142.34 148.699 1141.89 148.531 1141.55 148.196C1141.21 147.861 1141.03 147.394 1141.03 146.794ZM1142.88 145.882C1142.44 145.882 1142.22 146.186 1142.22 146.794C1142.22 147.409 1142.44 147.717 1142.88 147.717C1143.32 147.717 1143.54 147.409 1143.54 146.794C1143.54 146.186 1143.32 145.882 1142.88 145.882Z" fill="#6C6C6C"/>
<path d="M1104.04 148.777L1096.49 139.183C1096.34 139.003 1096.15 138.902 1095.95 138.902C1095.75 138.902 1095.56 139.003 1095.42 139.183L1087.86 148.777C1087.75 148.911 1087.68 149.082 1087.65 149.268C1087.62 149.454 1087.64 149.647 1087.69 149.822C1087.75 149.998 1087.85 150.148 1087.97 150.253C1088.1 150.358 1088.24 150.415 1088.39 150.415H1103.51C1103.66 150.415 1103.8 150.358 1103.93 150.253C1104.05 150.148 1104.15 149.998 1104.21 149.822C1104.26 149.647 1104.28 149.454 1104.25 149.268C1104.22 149.082 1104.15 148.911 1104.04 148.777Z" fill="#16C35B"/>
<defs>
<filter id="filter0_d_1316_31486" x="0" y="0" width="1495" height="308" filterUnits="userSpaceOnUse" color-interpolation-filters="sRGB">
<feFlood flood-opacity="0" result="BackgroundImageFix"/>
<feColorMatrix in="SourceAlpha" type="matrix" values="0 0 0 0 0 0 0 0 0 0 0 0 0 0 0 0 0 0 127 0" result="hardAlpha"/>
<feMorphology radius="12" operator="dilate" in="SourceAlpha" result="effect1_dropShadow_1316_31486"/>
<feOffset dy="4"/>
<feGaussianBlur stdDeviation="45"/>
<feComposite in2="hardAlpha" operator="out"/>
<feColorMatrix type="matrix" values="0 0 0 0 0.639216 0 0 0 0 0.670588 0 0 0 0 0.72549 0 0 0 0.25 0"/>
<feBlend mode="normal" in2="BackgroundImageFix" result="effect1_dropShadow_1316_31486"/>
<feBlend mode="normal" in="SourceGraphic" in2="effect1_dropShadow_1316_31486" result="shape"/>
</filter>
<clipPath id="clip0_1316_31486">
<rect width="28.8885" height="28.8885" fill="white" transform="translate(142.277 136.238)"/>
</clipPath>
<clipPath id="clip1_1316_31486">
<rect width="28" height="29" fill="white" transform="translate(450.189 136)"/>
</clipPath>
<clipPath id="clip2_1316_31486">
<rect width="23.3734" height="23.3734" fill="white" transform="translate(953.269 139.295)"/>
</clipPath>
<clipPath id="clip3_1316_31486">
<rect width="28.8885" height="28.8885" fill="white" transform="translate(142.277 136.238)"/>
</clipPath>
<clipPath id="clip4_1316_31486">
<rect width="28" height="29" fill="white" transform="translate(450.189 136)"/>
</clipPath>
<clipPath id="clip5_1316_31486">
<rect width="23.3734" height="23.3734" fill="white" transform="translate(953.269 139.295)"/>
</clipPath>
</defs>
</svg>
